<svg width="1600" height="900" viewBox="0 0 1600 900" fill="none" xmlns="http://www.w3.org/2000/svg">
<path d="M656 357.822H609.125L656 454.625" fill="#1697F6"/>
<path d="M656 357.822H702.875L656 454.625" fill="#1867C0"/>
<path d="M656 482.562V557.453L556 386.872H608.382" fill="#7BC6FF"/>
<path d="M656 482.563V557.455L756 386.873H703.618" fill="#AEDDFF"/>
<path d="M980 389.822C953.334 389.822 936.666 404.838 930 434.869C940 419.853 951.666 414.222 965 417.976C972.607 420.117 978.045 426.333 984.063 433.213C993.868 444.421 1005.21 457.392 1030 457.392C1056.67 457.392 1073.33 442.376 1080 412.345C1070 427.361 1058.33 432.992 1045 429.238C1037.39 427.096 1031.96 420.88 1025.94 414.001C1016.13 402.793 1004.79 389.822 980 389.822ZM930 457.392C903.334 457.392 886.666 472.408 880 502.439C890 487.423 901.666 481.792 915 485.546C922.607 487.688 928.045 493.904 934.063 500.783C943.868 511.991 955.215 524.962 980 524.962C1006.67 524.962 1023.33 509.946 1030 479.915C1020 494.931 1008.33 500.562 995 496.808C987.393 494.666 981.955 488.45 975.937 481.571C966.132 470.363 954.785 457.392 930 457.392Z" fill="url(#paint0_linear)"/>
<path d="M1340.22 468.044C1333.24 468.08 1327.17 469.761 1322.1 472.245C1320.23 468.555 1318.37 465.268 1318.04 462.856C1317.68 460.044 1317.24 458.327 1317.68 454.966C1318.11 451.605 1320.09 446.819 1320.05 446.454C1320.01 446.089 1319.61 444.372 1315.59 444.336C1311.58 444.299 1308.11 445.103 1307.7 446.162C1307.3 447.221 1306.53 449.632 1306.02 452.116C1305.33 455.77 1297.99 468.81 1293.79 475.642C1292.43 472.976 1291.26 470.637 1291.01 468.774C1290.64 465.962 1290.2 464.245 1290.64 460.884C1291.08 457.523 1293.05 452.738 1293.02 452.372C1292.98 452.007 1292.58 450.29 1288.56 450.254C1284.54 450.217 1281.07 451.021 1280.67 452.08C1280.27 453.14 1279.83 455.623 1278.99 458.034C1278.15 460.446 1268.4 482.218 1265.84 487.843C1264.81 490.12 1263.72 492.373 1262.59 494.602C1262.59 494.602 1262.55 494.712 1262.44 494.894C1262.09 495.593 1261.72 496.287 1261.35 496.976V497.012C1260.8 498 1260.21 498.912 1259.92 498.912C1259.7 498.912 1259.3 496.282 1259.99 492.702C1261.46 485.141 1264.93 473.378 1264.89 472.976C1264.89 472.756 1265.55 470.711 1262.62 469.651C1259.77 468.592 1258.75 470.345 1258.5 470.345C1258.24 470.345 1258.06 470.966 1258.06 470.966C1258.06 470.966 1261.24 457.742 1251.99 457.742C1246.22 457.742 1238.26 464.062 1234.31 469.761C1229.83 472.201 1225.35 474.649 1220.87 477.104C1218.72 478.309 1216.49 479.515 1214.4 480.647C1214.26 480.501 1214.11 480.318 1213.97 480.172C1202.79 468.227 1182.11 459.788 1182.99 443.751C1183.32 437.906 1185.33 422.563 1222.7 403.933C1253.45 388.772 1277.93 392.973 1282.17 402.288C1288.23 415.586 1269.05 440.281 1237.27 443.86C1225.14 445.212 1218.79 440.536 1217.18 438.783C1215.5 436.956 1215.24 436.846 1214.62 437.212C1213.6 437.761 1214.26 439.404 1214.62 440.354C1215.57 442.837 1219.48 447.221 1226.09 449.377C1231.94 451.276 1246.15 452.336 1263.35 445.687C1282.61 438.235 1297.66 417.522 1293.24 400.17C1288.82 382.562 1259.59 376.754 1231.94 386.58C1215.5 392.426 1197.67 401.631 1184.85 413.613C1169.62 427.86 1167.21 440.244 1168.19 445.432C1171.74 463.843 1197.13 475.825 1207.28 484.702C1206.77 484.994 1206.29 485.25 1205.89 485.47C1200.81 487.99 1181.45 498.108 1176.63 508.812C1171.15 520.94 1177.51 529.635 1181.71 530.803C1194.75 534.42 1208.16 527.918 1215.35 517.177C1222.55 506.438 1221.67 492.483 1218.35 486.09C1218.31 486.017 1218.28 485.944 1218.2 485.871C1219.52 485.104 1220.87 484.3 1222.19 483.533C1224.6 482.104 1227.05 480.727 1229.53 479.404C1228.29 482.802 1227.37 486.857 1226.93 492.702C1226.39 499.57 1229.2 508.483 1232.89 511.99C1234.53 513.525 1236.47 513.561 1237.71 513.561C1242.02 513.561 1243.96 509.981 1246.11 505.744C1248.74 500.557 1251.12 494.529 1251.12 494.529C1251.12 494.529 1248.16 510.822 1256.2 510.822C1259.12 510.822 1262.08 507.022 1263.39 505.086V505.122C1263.39 505.122 1263.46 505.013 1263.61 504.757C1263.9 504.283 1264.09 503.99 1264.09 503.99V503.917C1265.25 501.871 1267.89 497.232 1271.79 489.524C1276.84 479.588 1281.69 467.168 1281.69 467.168C1281.69 467.168 1282.13 470.199 1283.63 475.241C1284.51 478.2 1286.33 481.451 1287.79 484.592C1286.63 486.237 1285.89 487.149 1285.89 487.149L1285.93 487.186C1284.98 488.428 1283.96 489.779 1282.83 491.095C1278.84 495.844 1274.1 501.288 1273.44 502.857C1272.67 504.72 1272.85 506.073 1274.31 507.169C1275.37 507.972 1277.27 508.081 1279.21 507.972C1282.79 507.716 1285.31 506.84 1286.55 506.292C1288.49 505.598 1290.75 504.538 1292.87 502.967C1296.78 500.081 1299.15 495.953 1298.94 490.511C1298.83 487.515 1297.84 484.519 1296.63 481.706C1297 481.195 1297.33 480.684 1297.69 480.172C1303.87 471.149 1308.65 461.249 1308.65 461.249C1308.65 461.249 1309.09 464.281 1310.59 469.323C1311.32 471.88 1312.82 474.656 1314.13 477.359C1308.32 482.072 1304.74 487.551 1303.47 491.131C1301.16 497.78 1302.95 500.775 1306.35 501.469C1307.89 501.798 1310.08 501.067 1311.69 500.373C1313.73 499.716 1316.14 498.584 1318.44 496.903C1322.35 494.017 1326.11 489.999 1325.9 484.556C1325.79 482.072 1325.13 479.624 1324.22 477.249C1329.15 475.205 1335.5 474.072 1343.61 475.021C1361 477.067 1364.44 487.916 1363.78 492.484C1363.12 497.049 1359.47 499.533 1358.26 500.3C1357.06 501.068 1356.65 501.324 1356.76 501.871C1356.91 502.675 1357.49 502.639 1358.52 502.492C1359.94 502.237 1367.65 498.803 1367.98 490.4C1368.53 479.661 1358.3 467.934 1340.22 468.044V468.044ZM1206.07 513.269C1200.3 519.552 1192.27 521.927 1188.8 519.918C1185.07 517.762 1186.53 508.483 1193.62 501.835C1197.93 497.78 1203.48 494.017 1207.17 491.716C1208.01 491.204 1209.25 490.474 1210.75 489.561C1211.01 489.414 1211.15 489.341 1211.15 489.341L1212.03 488.793C1214.62 498.291 1212.14 506.657 1206.07 513.269V513.269ZM1248.09 484.702C1246.08 489.597 1241.88 502.127 1239.32 501.433C1237.13 500.849 1235.77 491.351 1238.88 481.962C1240.45 477.249 1243.77 471.624 1245.71 469.432C1248.85 465.925 1252.32 464.755 1253.16 466.181C1254.22 468.044 1249.33 481.633 1248.09 484.702V484.702ZM1282.75 501.287C1281.91 501.725 1281.11 502.018 1280.74 501.798C1280.49 501.652 1281.11 501.067 1281.11 501.067C1281.11 501.067 1285.46 496.392 1287.17 494.273C1288.16 493.031 1289.33 491.57 1290.57 489.926V490.4C1290.57 495.99 1285.16 499.753 1282.75 501.287H1282.75ZM1309.49 495.186C1308.87 494.748 1308.98 493.287 1311.06 488.72C1311.87 486.93 1313.77 483.935 1317.02 481.049C1317.38 482.218 1317.64 483.35 1317.6 484.41C1317.57 491.46 1312.53 494.09 1309.49 495.186Z" fill="#CD6799"/>
<path d="M391 356.822H431L331 556.641L231 356.822H307.5L331 403.157L354 356.822H391Z" fill="#41B883"/>
<path d="M231 356.822L331 556.641L431 356.822H391L331 476.713L270.5 356.822H231Z" fill="#41B883"/>
<path d="M270.5 356.822L331 477.292L391 356.822H354L331 403.157L307.5 356.822H270.5Z" fill="#35495E"/>
<path d="M882.576 212.202C881.763 208.947 881.763 205.519 882.575 202.264C883.387 199.008 884.983 196.04 887.202 193.657L933.437 143.996C935.656 141.613 938.42 139.899 941.451 139.027C944.481 138.154 947.673 138.155 950.703 139.027L993.968 151.479C994.419 145.112 996.482 139 999.936 133.803L947.826 118.807C944.086 117.731 940.148 117.731 936.408 118.807C932.667 119.884 929.257 121.999 926.519 124.939L869.461 186.224C866.723 189.166 864.754 192.829 863.752 196.846C862.749 200.863 862.749 205.093 863.752 209.111L878.25 267.227C882.989 263.34 888.632 260.925 894.562 260.248L882.576 212.202Z" fill="#2B5C94"/>
<path d="M1031.04 188.968L1043.42 238.619C1044.24 241.875 1044.24 245.302 1043.42 248.557C1042.61 251.813 1041.02 254.781 1038.8 257.164L992.561 306.827C990.343 309.21 987.579 310.923 984.548 311.796C981.518 312.667 978.326 312.667 975.295 311.796L930.563 298.921C929.933 305.291 927.686 311.352 924.066 316.442L978.174 332.014C981.914 333.091 985.852 333.091 989.592 332.014C993.333 330.937 996.743 328.823 999.481 325.882L1056.54 264.597C1059.28 261.656 1061.25 257.993 1062.25 253.975C1063.25 249.958 1063.25 245.728 1062.25 241.711L1047.2 181.418C1042.56 185.486 1036.97 188.098 1031.04 188.968Z" fill="#2B5C94"/>
<path d="M879.55 275.243C875.886 279.179 873.39 284.194 872.379 289.653C871.368 295.112 871.887 300.771 873.87 305.914C875.854 311.055 879.212 315.451 883.521 318.544C887.83 321.636 892.895 323.287 898.078 323.287C903.26 323.287 908.326 321.636 912.635 318.544C916.944 315.451 920.302 311.055 922.285 305.914C924.268 300.771 924.787 295.112 923.776 289.653C922.765 284.194 920.27 279.179 916.605 275.243C911.687 269.974 905.024 267.014 898.078 267.014C891.131 267.014 884.468 269.974 879.55 275.243Z" fill="#5E8EC3"/>
<path d="M1008.04 134.326C1004.38 138.262 1001.88 143.276 1000.87 148.736C999.859 154.195 1000.38 159.853 1002.36 164.996C1004.34 170.138 1007.7 174.534 1012.01 177.626C1016.32 180.719 1021.39 182.369 1026.57 182.369C1031.75 182.369 1036.82 180.719 1041.13 177.626C1045.43 174.534 1048.79 170.138 1050.77 164.996C1052.76 159.853 1053.28 154.195 1052.27 148.736C1051.26 143.276 1048.76 138.262 1045.1 134.326C1040.18 129.056 1033.51 126.096 1026.57 126.096C1019.62 126.096 1012.96 129.056 1008.04 134.326Z" fill="#5E8EC3"/>
<path d="M978.943 299.421C977.89 299.421 976.843 299.273 975.827 298.98L934.88 287.195C933.515 279.364 929.978 272.159 924.733 266.525C919.488 260.892 912.78 257.092 905.489 255.626L894.518 211.649C893.974 209.456 893.975 207.148 894.522 204.955C895.069 202.762 896.143 200.762 897.635 199.155L939.662 154.013C941.157 152.407 943.019 151.252 945.061 150.665C947.103 150.077 949.254 150.077 951.296 150.665L991.094 162.119C992.673 169.902 996.403 176.991 1001.8 182.458C1007.19 187.924 1013.99 191.514 1021.32 192.757L1032.6 237.998C1033.15 240.192 1033.14 242.501 1032.6 244.693C1032.05 246.886 1030.98 248.886 1029.48 250.494L987.457 295.634C986.342 296.838 985.014 297.794 983.553 298.443C982.091 299.093 980.524 299.425 978.943 299.421Z" fill="#5E8EC3"/>
<path d="M918.415 228.458C918.415 229.392 918.312 230.26 918.107 231.062C917.92 231.865 917.575 232.574 917.071 233.19C916.586 233.788 915.923 234.264 915.083 234.618C914.262 234.954 913.226 235.122 911.975 235.122C911.34 235.122 910.752 235.066 910.211 234.954C909.688 234.861 909.212 234.74 908.783 234.59C908.354 234.422 907.98 234.254 907.663 234.086C907.346 233.9 907.094 233.722 906.907 233.554L907.971 231.398C908.363 231.678 908.867 231.977 909.483 232.294C910.118 232.593 910.902 232.742 911.835 232.742C913.179 232.742 914.159 232.406 914.775 231.734C915.391 231.044 915.699 229.868 915.699 228.206V215.298H918.415V228.458ZM935.775 227.422C935.775 228.58 935.607 229.625 935.271 230.558C934.935 231.492 934.459 232.294 933.843 232.966C933.246 233.638 932.527 234.161 931.687 234.534C930.847 234.889 929.932 235.066 928.943 235.066C927.954 235.066 927.039 234.889 926.199 234.534C925.359 234.161 924.631 233.638 924.015 232.966C923.418 232.294 922.951 231.492 922.615 230.558C922.279 229.625 922.111 228.58 922.111 227.422C922.111 226.284 922.279 225.248 922.615 224.314C922.951 223.362 923.418 222.55 924.015 221.878C924.631 221.206 925.359 220.693 926.199 220.338C927.039 219.965 927.954 219.778 928.943 219.778C929.932 219.778 930.847 219.965 931.687 220.338C932.527 220.693 933.246 221.206 933.843 221.878C934.459 222.55 934.935 223.362 935.271 224.314C935.607 225.248 935.775 226.284 935.775 227.422ZM933.059 227.422C933.059 225.78 932.686 224.482 931.939 223.53C931.211 222.56 930.212 222.074 928.943 222.074C927.674 222.074 926.666 222.56 925.919 223.53C925.191 224.482 924.827 225.78 924.827 227.422C924.827 229.065 925.191 230.372 925.919 231.342C926.666 232.294 927.674 232.77 928.943 232.77C930.212 232.77 931.211 232.294 931.939 231.342C932.686 230.372 933.059 229.065 933.059 227.422ZM948.552 222.102C948.16 222.532 947.637 223.138 946.984 223.922C946.349 224.706 945.658 225.574 944.912 226.526C944.184 227.478 943.446 228.477 942.7 229.522C941.972 230.568 941.328 231.566 940.768 232.518H948.776V234.702H937.66V232.966C938.108 232.145 938.658 231.24 939.312 230.25C939.965 229.261 940.646 228.281 941.356 227.31C942.084 226.321 942.784 225.397 943.456 224.538C944.146 223.661 944.744 222.924 945.248 222.326H938.052V220.142H948.552V222.102ZM956.999 232.826C957.615 232.826 958.157 232.817 958.623 232.798C959.109 232.761 959.51 232.705 959.827 232.63V228.29C959.641 228.197 959.333 228.122 958.903 228.066C958.493 227.992 957.989 227.954 957.391 227.954C956.999 227.954 956.579 227.982 956.131 228.038C955.702 228.094 955.301 228.216 954.927 228.402C954.573 228.57 954.274 228.813 954.031 229.13C953.789 229.429 953.667 229.83 953.667 230.334C953.667 231.268 953.966 231.921 954.563 232.294C955.161 232.649 955.973 232.826 956.999 232.826ZM956.775 219.778C957.821 219.778 958.698 219.918 959.407 220.198C960.135 220.46 960.714 220.842 961.143 221.346C961.591 221.832 961.909 222.42 962.095 223.11C962.282 223.782 962.375 224.529 962.375 225.35V234.45C962.151 234.488 961.834 234.544 961.423 234.618C961.031 234.674 960.583 234.73 960.079 234.786C959.575 234.842 959.025 234.889 958.427 234.926C957.849 234.982 957.27 235.01 956.691 235.01C955.87 235.01 955.114 234.926 954.423 234.758C953.733 234.59 953.135 234.329 952.631 233.974C952.127 233.601 951.735 233.116 951.455 232.518C951.175 231.921 951.035 231.202 951.035 230.362C951.035 229.56 951.194 228.869 951.511 228.29C951.847 227.712 952.295 227.245 952.855 226.89C953.415 226.536 954.069 226.274 954.815 226.106C955.562 225.938 956.346 225.854 957.167 225.854C957.429 225.854 957.699 225.873 957.979 225.91C958.259 225.929 958.521 225.966 958.763 226.022C959.025 226.06 959.249 226.097 959.435 226.134C959.622 226.172 959.753 226.2 959.827 226.218V225.49C959.827 225.061 959.781 224.641 959.687 224.23C959.594 223.801 959.426 223.428 959.183 223.11C958.941 222.774 958.605 222.513 958.175 222.326C957.765 222.121 957.223 222.018 956.551 222.018C955.693 222.018 954.937 222.084 954.283 222.214C953.649 222.326 953.173 222.448 952.855 222.578L952.547 220.422C952.883 220.273 953.443 220.133 954.227 220.002C955.011 219.853 955.861 219.778 956.775 219.778ZM975.828 233.246C975.604 233.396 975.166 233.592 974.512 233.834C973.878 234.058 973.131 234.17 972.272 234.17C971.395 234.17 970.564 234.03 969.78 233.75C969.015 233.47 968.343 233.041 967.764 232.462C967.186 231.865 966.728 231.128 966.392 230.25C966.056 229.373 965.888 228.328 965.888 227.114C965.888 226.05 966.047 225.08 966.364 224.202C966.682 223.306 967.139 222.541 967.736 221.906C968.352 221.253 969.099 220.749 969.976 220.394C970.854 220.021 971.843 219.834 972.944 219.834C974.158 219.834 975.212 219.928 976.108 220.114C977.023 220.282 977.788 220.441 978.404 220.59V233.582C978.404 235.822 977.826 237.446 976.668 238.454C975.511 239.462 973.756 239.966 971.404 239.966C970.49 239.966 969.622 239.892 968.8 239.742C967.998 239.593 967.298 239.416 966.7 239.21L967.176 236.942C967.699 237.148 968.334 237.325 969.08 237.474C969.846 237.642 970.639 237.726 971.46 237.726C973.01 237.726 974.12 237.418 974.792 236.802C975.483 236.186 975.828 235.206 975.828 233.862V233.246ZM975.8 222.438C975.539 222.364 975.184 222.298 974.736 222.242C974.307 222.168 973.719 222.13 972.972 222.13C971.572 222.13 970.49 222.588 969.724 223.502C968.978 224.417 968.604 225.63 968.604 227.142C968.604 227.982 968.707 228.701 968.912 229.298C969.136 229.896 969.426 230.39 969.78 230.782C970.154 231.174 970.574 231.464 971.04 231.65C971.526 231.837 972.02 231.93 972.524 231.93C973.215 231.93 973.85 231.837 974.428 231.65C975.007 231.445 975.464 231.212 975.8 230.95V222.438ZM994.48 234.282C993.883 234.432 993.089 234.59 992.1 234.758C991.129 234.926 990 235.01 988.712 235.01C987.592 235.01 986.649 234.852 985.884 234.534C985.119 234.198 984.503 233.732 984.036 233.134C983.569 232.537 983.233 231.837 983.028 231.034C982.823 230.213 982.72 229.308 982.72 228.318V220.142H985.324V227.758C985.324 229.532 985.604 230.801 986.164 231.566C986.724 232.332 987.667 232.714 988.992 232.714C989.272 232.714 989.561 232.705 989.86 232.686C990.159 232.668 990.439 232.649 990.7 232.63C990.961 232.593 991.195 232.565 991.4 232.546C991.624 232.509 991.783 232.472 991.876 232.434V220.142H994.48V234.282ZM1001.4 220.142H1006.92V222.326H1001.4V229.046C1001.4 229.774 1001.46 230.381 1001.57 230.866C1001.68 231.333 1001.85 231.706 1002.07 231.986C1002.3 232.248 1002.58 232.434 1002.91 232.546C1003.25 232.658 1003.64 232.714 1004.09 232.714C1004.87 232.714 1005.5 232.63 1005.97 232.462C1006.45 232.276 1006.79 232.145 1006.97 232.07L1007.48 234.226C1007.22 234.357 1006.76 234.516 1006.11 234.702C1005.45 234.908 1004.71 235.01 1003.87 235.01C1002.88 235.01 1002.06 234.889 1001.4 234.646C1000.77 234.385 1000.25 234.002 999.862 233.498C999.47 232.994 999.19 232.378 999.022 231.65C998.873 230.904 998.798 230.045 998.798 229.074V216.082L1001.4 215.634V220.142ZM1013.62 232.826C1014.68 232.826 1015.47 232.686 1015.97 232.406C1016.49 232.126 1016.76 231.678 1016.76 231.062C1016.76 230.428 1016.5 229.924 1016 229.55C1015.5 229.177 1014.66 228.757 1013.51 228.29C1012.95 228.066 1012.41 227.842 1011.88 227.618C1011.38 227.376 1010.94 227.096 1010.57 226.778C1010.19 226.461 1009.9 226.078 1009.67 225.63C1009.45 225.182 1009.34 224.632 1009.34 223.978C1009.34 222.69 1009.81 221.673 1010.76 220.926C1011.72 220.161 1013.01 219.778 1014.66 219.778C1015.07 219.778 1015.48 219.806 1015.89 219.862C1016.3 219.9 1016.68 219.956 1017.04 220.03C1017.39 220.086 1017.7 220.152 1017.96 220.226C1018.24 220.301 1018.45 220.366 1018.6 220.422L1018.13 222.662C1017.85 222.513 1017.41 222.364 1016.81 222.214C1016.21 222.046 1015.5 221.962 1014.66 221.962C1013.93 221.962 1013.29 222.112 1012.75 222.41C1012.21 222.69 1011.94 223.138 1011.94 223.754C1011.94 224.072 1012 224.352 1012.11 224.594C1012.24 224.837 1012.42 225.061 1012.67 225.266C1012.93 225.453 1013.25 225.63 1013.62 225.798C1013.99 225.966 1014.44 226.144 1014.96 226.33C1015.65 226.592 1016.27 226.853 1016.81 227.114C1017.35 227.357 1017.81 227.646 1018.18 227.982C1018.58 228.318 1018.87 228.729 1019.08 229.214C1019.28 229.681 1019.39 230.26 1019.39 230.95C1019.39 232.294 1018.88 233.312 1017.88 234.002C1016.89 234.693 1015.47 235.038 1013.62 235.038C1012.33 235.038 1011.32 234.926 1010.6 234.702C1009.87 234.497 1009.37 234.338 1009.11 234.226L1009.59 231.986C1009.89 232.098 1010.36 232.266 1011.02 232.49C1011.67 232.714 1012.54 232.826 1013.62 232.826Z" fill="white"/>
<path d="M538 299.212C538 313.455 549.546 325 563.788 325H712.211C726.455 325 738 313.454 738 299.212V150.789C738 136.545 726.454 125 712.212 125H563.789C549.545 125 538 136.546 538 150.788V299.211V299.212Z" fill="#563D7C"/>
<path d="M620.936 213.467V185.145H645.866C648.241 185.145 650.53 185.342 652.735 185.738C654.94 186.134 656.891 186.84 658.587 187.858C660.282 188.876 661.639 190.289 662.657 192.098C663.674 193.907 664.184 196.225 664.184 199.051C664.184 204.139 662.657 207.814 659.604 210.075C656.552 212.337 652.651 213.467 647.902 213.467H620.936V213.467ZM594.309 164.453V285.547H652.99C658.417 285.547 663.703 284.869 668.848 283.512C673.992 282.155 678.571 280.063 682.585 277.237C686.598 274.41 689.793 270.763 692.167 266.298C694.542 261.831 695.729 256.545 695.729 250.44C695.729 242.864 693.891 236.391 690.217 231.021C686.542 225.65 680.973 221.891 673.511 219.742C678.938 217.142 683.038 213.806 685.808 209.736C688.577 205.666 689.962 200.578 689.962 194.472C689.962 188.819 689.03 184.07 687.164 180.226C685.298 176.382 682.67 173.301 679.277 170.983C675.886 168.665 671.816 166.997 667.066 165.98C662.318 164.962 657.06 164.453 651.294 164.453H594.309V164.453ZM620.936 264.855V231.614H649.937C655.703 231.614 660.339 232.942 663.845 235.6C667.349 238.257 669.102 242.695 669.102 248.913C669.102 252.08 668.565 254.68 667.491 256.715C666.416 258.75 664.975 260.362 663.166 261.548C661.357 262.736 659.265 263.584 656.891 264.093C654.516 264.601 652.029 264.855 649.428 264.855H620.936V264.855Z" fill="white"/>
<path d="M556 581.455H756V781.455H556V581.455Z" fill="#F7DF1E"/>
<path d="M608.588 748.589L623.892 739.326C626.846 744.562 629.531 748.991 635.974 748.991C642.15 748.991 646.045 746.576 646.045 737.179V673.274H664.839V737.444C664.839 756.911 653.428 765.772 636.78 765.772C621.745 765.772 613.017 757.985 608.587 748.587" fill="black"/>
<path d="M675.048 746.575L690.351 737.715C694.38 744.294 699.616 749.126 708.878 749.126C716.666 749.126 721.632 745.233 721.632 739.862C721.632 733.419 716.53 731.136 707.938 727.378L703.241 725.362C689.68 719.591 680.686 712.341 680.686 697.037C680.686 682.94 691.426 672.199 708.208 672.199C720.156 672.199 728.748 676.362 734.923 687.236L720.289 696.634C717.066 690.862 713.577 688.58 708.207 688.58C702.702 688.58 699.212 692.07 699.212 696.634C699.212 702.273 702.702 704.556 710.757 708.047L715.455 710.06C731.432 716.908 740.426 723.888 740.426 739.594C740.426 756.512 727.136 765.774 709.28 765.774C691.828 765.774 680.551 757.451 675.047 746.576" fill="black"/>
<path d="M1079.89 626.621C1079.96 626.887 1080 627.161 1080 627.437V670.292C1080 671.411 1079.38 672.446 1078.38 673.002L1041.29 693.712V734.758C1041.29 735.307 1041.14 735.846 1040.86 736.322C1040.57 736.798 1040.17 737.194 1039.68 737.469L962.25 780.691C962.073 780.788 961.88 780.85 961.686 780.917C961.613 780.94 961.545 780.983 961.469 781.003C960.927 781.141 960.358 781.141 959.817 781.003C959.728 780.98 959.648 780.933 959.563 780.902C959.386 780.839 959.201 780.784 959.032 780.691L881.62 737.468C881.128 737.194 880.719 736.8 880.435 736.324C880.15 735.848 880 735.308 880 734.758V606.194C880 605.912 880.041 605.639 880.112 605.374C880.137 605.283 880.193 605.202 880.226 605.111C880.286 604.948 880.343 604.78 880.431 604.627C880.491 604.526 880.58 604.444 880.652 604.35C880.745 604.225 880.83 604.096 880.938 603.986C881.031 603.897 881.152 603.83 881.257 603.752C881.374 603.658 881.478 603.557 881.611 603.483H881.615L920.323 581.872C920.813 581.599 921.368 581.455 921.934 581.455C922.5 581.455 923.055 581.599 923.545 581.872L962.253 603.483H962.261C962.39 603.561 962.499 603.658 962.616 603.749C962.72 603.827 962.838 603.897 962.93 603.983C963.043 604.096 963.123 604.226 963.22 604.35C963.288 604.444 963.381 604.526 963.438 604.627C963.53 604.783 963.582 604.948 963.647 605.112C963.679 605.202 963.735 605.283 963.759 605.377C963.834 605.643 963.872 605.918 963.873 606.194V686.492L996.127 668.483V627.433C996.127 627.161 996.168 626.883 996.241 626.621C996.269 626.527 996.321 626.446 996.353 626.356C996.418 626.192 996.474 626.023 996.562 625.871C996.623 625.77 996.711 625.688 996.78 625.594C996.877 625.469 996.957 625.34 997.07 625.23C997.163 625.141 997.28 625.074 997.384 624.996C997.505 624.902 997.61 624.801 997.739 624.727H997.743L1036.45 603.116C1036.94 602.842 1037.5 602.698 1038.07 602.698C1038.63 602.698 1039.19 602.842 1039.68 603.116L1078.39 624.727C1078.52 624.805 1078.63 624.902 1078.75 624.992C1078.85 625.071 1078.96 625.141 1079.06 625.227C1079.17 625.34 1079.25 625.469 1079.35 625.594C1079.42 625.688 1079.51 625.77 1079.57 625.871C1079.66 626.023 1079.71 626.192 1079.77 626.356C1079.81 626.446 1079.86 626.527 1079.89 626.621V626.621ZM1073.55 668.483V632.847L1060 640.408L1041.29 650.857V686.493L1073.55 668.483H1073.55V668.483ZM1034.84 732.949V697.288L1016.43 707.483L963.869 736.574V772.569L1034.84 732.948V732.949ZM886.452 611.603V732.949L957.416 772.566V736.577L920.344 716.232L920.332 716.224L920.316 716.217C920.191 716.146 920.086 716.045 919.97 715.959C919.868 715.88 919.752 715.818 919.663 715.732L919.655 715.721C919.551 715.623 919.478 715.502 919.39 715.392C919.309 715.286 919.213 715.197 919.148 715.088L919.144 715.076C919.071 714.959 919.027 714.818 918.974 714.686C918.922 714.568 918.854 714.458 918.821 714.334V714.33C918.781 714.182 918.773 714.025 918.757 713.873C918.741 713.756 918.709 713.639 918.709 713.521V629.614L899.998 619.161L886.452 611.608V611.603ZM921.938 588.192L889.687 606.194L921.93 624.196L954.177 606.19L921.93 588.192H921.938ZM938.71 700.539L957.42 690.095V611.603L943.875 619.165L925.16 629.613V708.104L938.71 700.539V700.539ZM1038.07 609.436L1005.82 627.437L1038.07 645.439L1070.31 627.433L1038.07 609.436H1038.07ZM1034.84 650.857L1016.13 640.408L1002.58 632.847V668.483L1021.29 678.928L1034.84 686.493V650.857H1034.84ZM960.638 731.164L1007.94 704.98L1031.58 691.895L999.358 673.905L962.257 694.617L928.443 713.494L960.638 731.164Z" fill="#FF2D20"/>
<path d="M331 756.01C386.228 756.01 431 722.531 431 681.232C431 639.934 386.228 606.455 331 606.455C275.772 606.455 231 639.934 231 681.232C231 722.531 275.772 756.01 331 756.01Z" fill="url(#paint1_radial)"/>
<path d="M331 750.454C384.071 750.454 427.094 719.462 427.094 681.232C427.094 643.001 384.071 612.009 331 612.009C277.929 612.009 234.906 643.001 234.906 681.232C234.906 719.462 277.929 750.454 331 750.454Z" fill="#6181B6"/>
<path d="M350.455 703.677L355.221 668.788C356.315 660.899 355.377 655.01 352.565 651.344C349.83 647.788 345.143 646.01 338.268 646.01H329.987L332.33 628.677C332.409 628.01 332.33 627.344 332.018 626.788C331.705 626.232 331.315 626.01 330.846 626.01H319.44C318.659 626.01 318.034 626.788 317.877 627.788L312.799 664.788C312.33 660.566 311.237 657.01 309.362 654.121C306.002 648.677 300.768 645.899 293.659 645.899H271.705C270.924 645.899 270.299 646.677 270.143 647.677L259.909 722.788C259.83 723.455 259.909 724.121 260.221 724.677C260.534 725.233 260.924 725.455 261.393 725.455H272.877C273.659 725.455 274.284 724.677 274.44 723.677L276.94 705.566H285.455C289.909 705.566 293.737 704.899 296.627 703.566C299.674 702.121 302.409 699.788 304.83 696.566C306.784 694.01 308.424 691.121 309.674 688.01L307.643 703.01C307.565 703.677 307.643 704.344 307.955 704.899C308.268 705.455 308.659 705.677 309.127 705.677H320.534C321.315 705.677 321.94 704.899 322.096 703.899L327.721 662.788H335.534C338.893 662.788 339.83 663.677 340.143 664.121C340.377 664.455 340.846 665.788 340.299 669.899L335.768 703.121C335.69 703.788 335.768 704.455 336.08 705.01C336.393 705.566 336.784 705.788 337.252 705.788H348.971C349.674 705.455 350.299 704.677 350.455 703.677ZM297.643 674.788C296.94 680.01 295.612 683.788 293.659 685.899C291.705 688.01 288.502 689.121 284.284 689.121H279.205L282.877 662.232H289.44C294.284 662.232 296.237 663.677 297.018 664.899C298.034 666.677 298.268 670.121 297.643 674.788V674.788Z" fill="white"/>
<path d="M399.197 654.123C395.837 648.678 390.603 645.901 383.494 645.901H361.384C360.603 645.901 359.978 646.678 359.822 647.678L349.587 722.678C349.509 723.345 349.587 724.012 349.9 724.567C350.212 725.123 350.603 725.345 351.072 725.345H362.556C363.337 725.345 363.962 724.567 364.119 723.567L366.619 705.456H375.134C379.587 705.456 383.415 704.789 386.306 703.456C389.353 702.012 392.087 699.678 394.509 696.456C396.54 693.79 398.259 690.79 399.509 687.567C400.759 684.345 401.697 680.79 402.244 676.901C403.572 667.234 402.556 659.678 399.197 654.123V654.123ZM387.244 674.79C386.54 680.012 385.212 683.79 383.259 685.901C381.306 688.012 378.103 689.123 373.884 689.123H368.806L372.478 662.234H379.04C383.884 662.234 385.837 663.678 386.619 664.901C387.712 666.678 387.947 670.123 387.244 674.79Z" fill="white"/>
<path d="M289.437 660.011C293.812 660.011 296.703 661.122 298.187 663.456C299.672 665.789 299.984 669.678 299.203 675.234C298.422 681.011 296.859 685.234 294.594 687.678C292.328 690.122 288.891 691.345 284.281 691.345H277.328L281.625 660.011H289.437V660.011ZM261.469 723.122H272.953L275.687 703.234H285.531C289.906 703.234 293.422 702.567 296.234 701.234C299.047 699.9 301.547 697.789 303.891 694.678C305.844 692.122 307.406 689.345 308.578 686.345C309.75 683.345 310.609 680.011 311.078 676.345C312.328 667.456 311.391 660.567 308.344 655.567C305.297 650.567 300.453 648.122 293.812 648.122H271.703L261.469 723.122Z" fill="#000004"/>
<path d="M319.51 628.232H330.916L328.182 648.121H338.338C344.744 648.121 349.119 649.676 351.541 652.899C353.963 656.121 354.666 661.232 353.729 668.343L348.963 703.232H337.4L341.932 670.01C342.479 666.232 342.244 663.677 341.385 662.343C340.525 661.01 338.572 660.232 335.682 660.232H326.541L320.682 703.232H309.275L319.51 628.232V628.232Z" fill="#000004"/>
<path d="M379.041 660.011C383.416 660.011 386.307 661.122 387.791 663.456C389.275 665.789 389.588 669.678 388.807 675.234C388.025 681.011 386.463 685.234 384.197 687.678C381.932 690.122 378.494 691.345 373.885 691.345H366.932L371.229 660.011H379.041ZM351.072 723.122H362.557L365.291 703.234H375.135C379.51 703.234 383.025 702.567 385.838 701.234C388.65 699.9 391.15 697.789 393.494 694.678C395.447 692.122 397.01 689.345 398.182 686.345C399.353 683.345 400.213 680.011 400.682 676.345C401.932 667.456 400.994 660.567 397.947 655.567C394.9 650.567 390.057 648.122 383.416 648.122H361.307L351.072 723.122Z" fill="#000004"/>
<path fill-rule="evenodd" clip-rule="evenodd" d="M1228.86 750.681C1228.71 750.417 1228.58 750.144 1228.47 749.864C1227.67 748.006 1227.42 745.955 1227.76 743.959H1180.5L1250.73 619.709L1273.79 660.456L1280.48 648.563L1260.38 612.966C1259.82 611.94 1256.42 606.455 1250.57 606.455C1247.92 606.455 1244.13 607.606 1241.05 613.05L1169.89 738.808C1169.29 739.897 1166.35 745.614 1169.27 750.681C1170.6 752.984 1173.44 755.727 1179.68 755.727H1239.28C1233.07 755.727 1230.2 753.025 1228.86 750.681V750.681Z" fill="#01C58E"/>
<path fill-rule="evenodd" clip-rule="evenodd" d="M1365.88 738.808L1307.41 635.266C1306.81 634.177 1303.43 628.67 1297.56 628.67C1294.91 628.67 1291.12 629.801 1288.04 635.245L1280.48 648.563L1287.21 660.455L1297.62 641.925L1355.47 743.959H1333.47C1333.75 745.646 1333.59 747.377 1333.01 748.985C1332.89 749.34 1332.74 749.683 1332.55 750.011L1332.37 750.388C1329.41 755.454 1323.01 755.727 1321.76 755.727H1356.17C1357.44 755.727 1363.82 755.455 1366.78 750.388C1368.09 748.084 1369.03 744.211 1365.88 738.808V738.808Z" fill="#108775"/>
<path fill-rule="evenodd" clip-rule="evenodd" d="M1332.36 750.388L1332.55 750.011C1332.73 749.682 1332.89 749.339 1333.01 748.985C1333.59 747.377 1333.75 745.647 1333.47 743.959C1333.14 742.14 1332.5 740.395 1331.55 738.808L1287.25 660.456L1280.48 648.563L1273.75 660.455L1229.47 738.808C1228.61 740.414 1228.03 742.156 1227.76 743.959C1227.4 745.949 1227.63 748 1228.4 749.864C1228.52 750.144 1228.65 750.417 1228.8 750.681C1230.13 752.984 1232.97 755.727 1239.21 755.727H1321.7C1323.01 755.727 1329.41 755.455 1332.36 750.388V750.388ZM1280.48 672.349L1320.97 743.959H1240.01L1280.48 672.349V672.349Z" fill="#2F495E"/>
<defs>
<linearGradient id="paint0_linear" x1="874.444" y1="433.067" x2="1056.8" y2="526.43" gradientUnits="userSpaceOnUse">
<stop stop-color="#2298BD"/>
<stop offset="1" stop-color="#0ED7B5"/>
</linearGradient>
<radialGradient id="paint1_radial" cx="0" cy="0" r="1" gradientUnits="userSpaceOnUse" gradientTransform="translate(291.04 632.752) scale(131.325 186.773)">
<stop stop-color="white"/>
<stop offset="0.5" stop-color="#4C6B97"/>
<stop offset="1" stop-color="#231F20"/>
</radialGradient>
</defs>
</svg>
