<svg width="1200" height="650" viewBox="0 0 1200 650" fill="none" xmlns="http://www.w3.org/2000/svg">
<path d="M491.997 258.427H456.84L491.997 328.34" fill="#1697F6"/>
<path d="M491.997 258.427H527.153L491.997 328.34" fill="#1867C0"/>
<path d="M491.997 348.517V402.605L416.997 279.408H456.283" fill="#7BC6FF"/>
<path d="M491.997 348.518V402.606L566.997 279.408H527.71" fill="#AEDDFF"/>
<path d="M735.002 281.538C715.002 281.538 702.502 292.383 697.502 314.072C705.002 303.227 713.752 299.161 723.752 301.872C729.457 303.419 733.535 307.908 738.049 312.876C745.403 320.971 753.913 330.339 772.502 330.339C792.502 330.339 805.002 319.494 810.002 297.805C802.502 308.65 793.752 312.717 783.752 310.005C778.047 308.459 773.969 303.969 769.454 299.001C762.101 290.906 753.591 281.538 735.002 281.538ZM697.502 330.339C677.502 330.339 665.002 341.184 660.002 362.873C667.502 352.028 676.252 347.961 686.252 350.673C691.957 352.219 696.035 356.709 700.549 361.677C707.903 369.772 716.413 379.14 735.002 379.14C755.002 379.14 767.502 368.295 772.502 346.606C765.002 357.451 756.252 361.517 746.252 358.806C740.547 357.259 736.469 352.77 731.954 347.802C724.601 339.707 716.091 330.339 697.502 330.339Z" fill="url(#paint0_linear)"/>
<path d="M1005.16 338.032C999.928 338.058 995.38 339.272 991.572 341.066C990.174 338.401 988.777 336.027 988.53 334.285C988.256 332.254 987.928 331.014 988.256 328.587C988.585 326.159 990.065 322.703 990.037 322.439C990.01 322.175 989.708 320.935 986.694 320.909C983.681 320.883 981.078 321.463 980.776 322.228C980.475 322.993 979.9 324.735 979.516 326.528C978.996 329.167 973.489 338.585 970.338 343.519C969.324 341.594 968.448 339.905 968.256 338.559C967.982 336.528 967.653 335.288 967.982 332.861C968.311 330.433 969.79 326.977 969.763 326.713C969.735 326.45 969.434 325.209 966.42 325.183C963.406 325.157 960.803 325.737 960.502 326.502C960.201 327.268 959.872 329.061 959.242 330.803C958.611 332.544 951.296 348.269 949.378 352.331C948.603 353.976 947.79 355.603 946.94 357.213C946.94 357.213 946.912 357.292 946.83 357.424C946.563 357.928 946.289 358.43 946.009 358.927V358.953C945.597 359.666 945.159 360.326 944.94 360.326C944.775 360.326 944.474 358.426 944.995 355.84C946.09 350.379 948.693 341.884 948.666 341.594C948.666 341.435 949.159 339.958 946.968 339.192C944.83 338.427 944.063 339.694 943.871 339.694C943.68 339.694 943.542 340.142 943.542 340.142C943.542 340.142 945.926 330.592 938.994 330.592C934.666 330.592 928.693 335.156 925.734 339.272C922.37 341.034 919.009 342.802 915.651 344.575C914.036 345.446 912.364 346.316 910.802 347.134C910.692 347.029 910.583 346.896 910.473 346.791C902.089 338.164 886.582 332.069 887.24 320.487C887.487 316.266 888.993 305.185 917.021 291.729C940.09 280.78 958.447 283.814 961.626 290.542C966.173 300.146 951.79 317.981 927.953 320.566C918.857 321.542 914.09 318.165 912.884 316.899C911.624 315.579 911.432 315.5 910.966 315.764C910.199 316.16 910.692 317.348 910.966 318.033C911.679 319.827 914.61 322.993 919.569 324.55C923.953 325.922 934.611 326.687 947.515 321.885C961.954 316.503 973.242 301.544 969.927 289.012C966.612 276.295 944.693 272.1 923.953 279.197C911.624 283.419 898.254 290.067 888.637 298.721C877.212 309.01 875.403 317.954 876.143 321.701C878.801 334.998 897.843 343.651 905.459 350.063C905.076 350.274 904.719 350.459 904.418 350.617C900.61 352.437 886.089 359.745 882.472 367.476C878.363 376.235 883.13 382.514 886.281 383.358C896.062 385.97 906.117 381.274 911.514 373.517C916.912 365.761 916.254 355.682 913.761 351.065C913.734 351.013 913.706 350.959 913.651 350.907C914.638 350.353 915.651 349.772 916.638 349.218C918.451 348.186 920.287 347.192 922.145 346.237C921.213 348.69 920.528 351.619 920.2 355.84C919.788 360.801 921.898 367.238 924.665 369.77C925.898 370.879 927.35 370.905 928.282 370.905C931.515 370.905 932.967 368.32 934.584 365.259C936.556 361.513 938.337 357.16 938.337 357.16C938.337 357.16 936.118 368.927 942.146 368.927C944.337 368.927 946.556 366.183 947.543 364.785V364.811C947.543 364.811 947.598 364.731 947.707 364.547C947.927 364.204 948.063 363.992 948.063 363.992V363.94C948.94 362.463 950.913 359.112 953.844 353.545C957.625 346.369 961.269 337.399 961.269 337.399C961.269 337.399 961.598 339.588 962.721 343.229C963.379 345.366 964.748 347.714 965.845 349.983C964.968 351.171 964.42 351.83 964.42 351.83L964.448 351.857C963.735 352.753 962.968 353.729 962.118 354.68C959.132 358.109 955.571 362.041 955.077 363.175C954.501 364.52 954.639 365.497 955.735 366.288C956.53 366.869 957.954 366.948 959.406 366.869C962.091 366.684 963.982 366.051 964.913 365.655C966.365 365.154 968.064 364.389 969.653 363.254C972.585 361.17 974.365 358.189 974.201 354.258C974.119 352.094 973.379 349.931 972.475 347.899C972.749 347.53 972.995 347.161 973.27 346.791C977.9 340.274 981.489 333.124 981.489 333.124C981.489 333.124 981.818 335.314 982.941 338.955C983.489 340.802 984.613 342.807 985.599 344.759C981.242 348.163 978.557 352.12 977.598 354.706C975.873 359.508 977.215 361.671 979.763 362.172C980.913 362.41 982.557 361.882 983.763 361.381C985.297 360.906 987.106 360.088 988.832 358.874C991.764 356.79 994.585 353.888 994.421 349.957C994.338 348.163 993.846 346.395 993.16 344.68C996.859 343.203 1001.63 342.385 1007.71 343.071C1020.75 344.548 1023.33 352.384 1022.83 355.683C1022.34 358.98 1019.6 360.774 1018.7 361.328C1017.79 361.883 1017.49 362.067 1017.57 362.463C1017.68 363.043 1018.12 363.017 1018.89 362.911C1019.96 362.727 1025.74 360.246 1025.98 354.178C1026.39 346.422 1018.72 337.953 1005.16 338.032V338.032ZM904.555 370.694C900.226 375.232 894.199 376.947 891.596 375.496C888.802 373.939 889.897 367.238 895.212 362.437C898.445 359.508 902.61 356.79 905.377 355.128C906.007 354.759 906.939 354.231 908.062 353.572C908.254 353.466 908.364 353.413 908.364 353.413L909.021 353.017C910.966 359.877 909.104 365.919 904.555 370.694V370.694ZM936.063 350.063C934.556 353.598 931.406 362.648 929.488 362.146C927.844 361.724 926.83 354.864 929.159 348.084C930.337 344.68 932.83 340.617 934.282 339.035C936.638 336.501 939.241 335.657 939.871 336.686C940.666 338.032 936.994 347.846 936.063 350.063V350.063ZM962.064 362.04C961.433 362.357 960.831 362.568 960.557 362.41C960.365 362.304 960.831 361.882 960.831 361.882C960.831 361.882 964.092 358.505 965.379 356.975C966.119 356.078 966.995 355.023 967.927 353.835V354.178C967.927 358.215 963.872 360.933 962.063 362.04H962.064ZM982.119 357.635C981.653 357.318 981.735 356.263 983.297 352.965C983.9 351.672 985.324 349.509 987.763 347.424C988.037 348.268 988.229 349.087 988.201 349.851C988.174 354.944 984.393 356.843 982.119 357.635Z" fill="#CD6799"/>
<path d="M293.247 257.705H323.247L248.247 402.018L173.247 257.705H230.622L248.247 291.169L265.497 257.705H293.247Z" fill="#41B883"/>
<path d="M173.247 257.705L248.247 402.018L323.247 257.705H293.247L248.247 344.293L202.872 257.705H173.247Z" fill="#41B883"/>
<path d="M202.87 257.705L248.245 344.711L293.245 257.705H265.495L248.245 291.169L230.62 257.705H202.87Z" fill="#35495E"/>
<path d="M661.929 153.257C661.32 150.906 661.32 148.43 661.929 146.079C662.538 143.728 663.735 141.584 665.399 139.863L700.075 103.997C701.739 102.276 703.812 101.038 706.085 100.408C708.358 99.778 710.752 99.7781 713.025 100.408L745.474 109.401C745.811 104.803 747.359 100.389 749.949 96.6352L710.867 85.805C708.062 85.0277 705.108 85.0277 702.303 85.8051C699.498 86.5825 696.94 88.1099 694.886 90.2337L652.093 134.495C650.039 136.619 648.563 139.265 647.811 142.166C647.059 145.068 647.059 148.123 647.811 151.024L658.685 192.997C662.239 190.19 666.471 188.446 670.919 187.957L661.929 153.257Z" fill="#2B5C94"/>
<path d="M773.282 136.477L782.572 172.336C783.181 174.688 783.181 177.163 782.572 179.514C781.963 181.865 780.766 184.009 779.101 185.73L744.425 221.597C742.761 223.318 740.688 224.555 738.415 225.186C736.142 225.815 733.748 225.815 731.475 225.186L697.926 215.887C697.454 220.488 695.768 224.865 693.053 228.541L733.634 239.788C736.439 240.566 739.393 240.566 742.198 239.788C745.003 239.01 747.561 237.484 749.615 235.359L792.408 191.098C794.462 188.974 795.938 186.328 796.69 183.426C797.442 180.525 797.442 177.47 796.69 174.569L785.406 131.025C781.927 133.962 777.731 135.849 773.282 136.477Z" fill="#2B5C94"/>
<path d="M659.663 198.787C656.915 201.629 655.043 205.251 654.285 209.194C653.526 213.137 653.915 217.224 655.403 220.938C656.89 224.651 659.409 227.826 662.641 230.059C665.872 232.292 669.672 233.485 673.558 233.485C677.445 233.485 681.244 232.292 684.476 230.059C687.708 227.826 690.226 224.651 691.714 220.938C693.201 217.224 693.59 213.137 692.832 209.194C692.074 205.251 690.202 201.629 687.454 198.787C683.766 194.981 678.768 192.843 673.558 192.843C668.348 192.843 663.351 194.981 659.663 198.787Z" fill="#5E8EC3"/>
<path d="M756.031 97.0129C753.283 99.8554 751.411 103.477 750.653 107.42C749.895 111.363 750.284 115.449 751.771 119.163C753.259 122.877 755.777 126.052 759.008 128.285C762.241 130.519 766.04 131.711 769.926 131.711C773.813 131.711 777.612 130.519 780.845 128.285C784.076 126.052 786.594 122.877 788.082 119.163C789.569 115.449 789.958 111.363 789.2 107.42C788.442 103.477 786.57 99.8554 783.822 97.0129C780.134 93.2068 775.136 91.0692 769.926 91.0692C764.717 91.0692 759.719 93.2068 756.031 97.0129Z" fill="#5E8EC3"/>
<path d="M734.208 216.248C733.419 216.248 732.634 216.142 731.871 215.93L701.161 207.419C700.137 201.763 697.484 196.559 693.551 192.491C689.617 188.422 684.586 185.678 679.118 184.619L670.889 152.858C670.481 151.274 670.483 149.607 670.893 148.023C671.303 146.44 672.108 144.995 673.227 143.834L704.747 111.232C705.869 110.072 707.265 109.238 708.797 108.814C710.329 108.389 711.941 108.389 713.473 108.814L743.322 117.086C744.506 122.707 747.303 127.827 751.348 131.775C755.393 135.723 760.497 138.316 765.99 139.214L774.453 171.888C774.861 173.472 774.86 175.14 774.449 176.723C774.039 178.307 773.234 179.751 772.114 180.912L740.594 213.514C739.758 214.383 738.762 215.074 737.666 215.542C736.57 216.012 735.395 216.252 734.208 216.248Z" fill="#5E8EC3"/>
<path d="M688.816 166.046C688.816 166.746 688.739 167.397 688.585 167.999C688.445 168.601 688.186 169.133 687.808 169.595C687.444 170.043 686.947 170.4 686.317 170.666C685.701 170.918 684.924 171.044 683.986 171.044C683.51 171.044 683.069 171.002 682.663 170.918C682.271 170.848 681.914 170.757 681.592 170.645C681.27 170.519 680.99 170.393 680.752 170.267C680.514 170.127 680.325 169.994 680.185 169.868L680.983 168.251C681.277 168.461 681.655 168.685 682.117 168.923C682.593 169.147 683.181 169.259 683.881 169.259C684.889 169.259 685.624 169.007 686.086 168.503C686.548 167.985 686.779 167.103 686.779 165.857V156.176H688.816V166.046ZM701.836 165.269C701.836 166.137 701.71 166.921 701.458 167.621C701.206 168.321 700.849 168.923 700.387 169.427C699.939 169.931 699.4 170.323 698.77 170.603C698.14 170.869 697.454 171.002 696.712 171.002C695.97 171.002 695.284 170.869 694.654 170.603C694.024 170.323 693.478 169.931 693.016 169.427C692.568 168.923 692.218 168.321 691.966 167.621C691.714 166.921 691.588 166.137 691.588 165.269C691.588 164.415 691.714 163.638 691.966 162.938C692.218 162.224 692.568 161.615 693.016 161.111C693.478 160.607 694.024 160.222 694.654 159.956C695.284 159.676 695.97 159.536 696.712 159.536C697.454 159.536 698.14 159.676 698.77 159.956C699.4 160.222 699.939 160.607 700.387 161.111C700.849 161.615 701.206 162.224 701.458 162.938C701.71 163.638 701.836 164.415 701.836 165.269ZM699.799 165.269C699.799 164.037 699.519 163.064 698.959 162.35C698.413 161.622 697.664 161.258 696.712 161.258C695.76 161.258 695.004 161.622 694.444 162.35C693.898 163.064 693.625 164.037 693.625 165.269C693.625 166.501 693.898 167.481 694.444 168.209C695.004 168.923 695.76 169.28 696.712 169.28C697.664 169.28 698.413 168.923 698.959 168.209C699.519 167.481 699.799 166.501 699.799 165.269ZM711.418 161.279C711.124 161.601 710.732 162.056 710.242 162.644C709.766 163.232 709.248 163.883 708.688 164.597C708.142 165.311 707.589 166.06 707.029 166.844C706.483 167.628 706 168.377 705.58 169.091H711.586V170.729H703.249V169.427C703.585 168.811 703.998 168.132 704.488 167.39C704.978 166.648 705.489 165.913 706.021 165.185C706.567 164.443 707.092 163.75 707.596 163.106C708.114 162.448 708.562 161.895 708.94 161.447H703.543V159.809H711.418V161.279ZM717.754 169.322C718.216 169.322 718.622 169.315 718.972 169.301C719.336 169.273 719.637 169.231 719.875 169.175V165.92C719.735 165.85 719.504 165.794 719.182 165.752C718.874 165.696 718.496 165.668 718.048 165.668C717.754 165.668 717.439 165.689 717.103 165.731C716.781 165.773 716.48 165.864 716.2 166.004C715.934 166.13 715.71 166.312 715.528 166.55C715.346 166.774 715.255 167.075 715.255 167.453C715.255 168.153 715.479 168.643 715.927 168.923C716.375 169.189 716.984 169.322 717.754 169.322ZM717.586 159.536C718.37 159.536 719.028 159.641 719.56 159.851C720.106 160.047 720.54 160.334 720.862 160.712C721.198 161.076 721.436 161.517 721.576 162.035C721.716 162.539 721.786 163.099 721.786 163.715V170.54C721.618 170.568 721.38 170.61 721.072 170.666C720.778 170.708 720.442 170.75 720.064 170.792C719.686 170.834 719.273 170.869 718.825 170.897C718.391 170.939 717.957 170.96 717.523 170.96C716.907 170.96 716.34 170.897 715.822 170.771C715.304 170.645 714.856 170.449 714.478 170.183C714.1 169.903 713.806 169.539 713.596 169.091C713.386 168.643 713.281 168.104 713.281 167.474C713.281 166.872 713.4 166.354 713.638 165.92C713.89 165.486 714.226 165.136 714.646 164.87C715.066 164.604 715.556 164.408 716.116 164.282C716.676 164.156 717.264 164.093 717.88 164.093C718.076 164.093 718.279 164.107 718.489 164.135C718.699 164.149 718.895 164.177 719.077 164.219C719.273 164.247 719.441 164.275 719.581 164.303C719.721 164.331 719.819 164.352 719.875 164.366V163.82C719.875 163.498 719.84 163.183 719.77 162.875C719.7 162.553 719.574 162.273 719.392 162.035C719.21 161.783 718.958 161.587 718.636 161.447C718.328 161.293 717.922 161.216 717.418 161.216C716.774 161.216 716.207 161.265 715.717 161.363C715.241 161.447 714.884 161.538 714.646 161.636L714.415 160.019C714.667 159.907 715.087 159.802 715.675 159.704C716.263 159.592 716.9 159.536 717.586 159.536ZM731.876 169.637C731.708 169.749 731.379 169.896 730.889 170.078C730.413 170.246 729.853 170.33 729.209 170.33C728.551 170.33 727.928 170.225 727.34 170.015C726.766 169.805 726.262 169.483 725.828 169.049C725.394 168.601 725.051 168.048 724.799 167.39C724.547 166.732 724.421 165.948 724.421 165.038C724.421 164.24 724.54 163.512 724.778 162.854C725.016 162.182 725.359 161.608 725.807 161.132C726.269 160.642 726.829 160.264 727.487 159.998C728.145 159.718 728.887 159.578 729.713 159.578C730.623 159.578 731.414 159.648 732.086 159.788C732.772 159.914 733.346 160.033 733.808 160.145V169.889C733.808 171.569 733.374 172.787 732.506 173.543C731.638 174.299 730.322 174.677 728.558 174.677C727.872 174.677 727.221 174.621 726.605 174.509C726.003 174.397 725.478 174.264 725.03 174.11L725.387 172.409C725.779 172.563 726.255 172.696 726.815 172.808C727.389 172.934 727.984 172.997 728.6 172.997C729.762 172.997 730.595 172.766 731.099 172.304C731.617 171.842 731.876 171.107 731.876 170.099V169.637ZM731.855 161.531C731.659 161.475 731.393 161.426 731.057 161.384C730.735 161.328 730.294 161.3 729.734 161.3C728.684 161.3 727.872 161.643 727.298 162.329C726.738 163.015 726.458 163.925 726.458 165.059C726.458 165.689 726.535 166.228 726.689 166.676C726.857 167.124 727.074 167.495 727.34 167.789C727.62 168.083 727.935 168.3 728.285 168.44C728.649 168.58 729.02 168.65 729.398 168.65C729.916 168.65 730.392 168.58 730.826 168.44C731.26 168.286 731.603 168.111 731.855 167.915V161.531ZM745.864 170.414C745.416 170.526 744.821 170.645 744.079 170.771C743.351 170.897 742.504 170.96 741.538 170.96C740.698 170.96 739.991 170.841 739.417 170.603C738.843 170.351 738.381 170.001 738.031 169.553C737.681 169.105 737.429 168.58 737.275 167.978C737.121 167.362 737.044 166.683 737.044 165.941V159.809H738.997V165.521C738.997 166.851 739.207 167.803 739.627 168.377C740.047 168.951 740.754 169.238 741.748 169.238C741.958 169.238 742.175 169.231 742.399 169.217C742.623 169.203 742.833 169.189 743.029 169.175C743.225 169.147 743.4 169.126 743.554 169.112C743.722 169.084 743.841 169.056 743.911 169.028V159.809H745.864V170.414ZM751.056 159.809H755.193V161.447H751.056V166.487C751.056 167.033 751.098 167.488 751.182 167.852C751.266 168.202 751.392 168.482 751.56 168.692C751.728 168.888 751.938 169.028 752.19 169.112C752.442 169.196 752.736 169.238 753.072 169.238C753.66 169.238 754.129 169.175 754.479 169.049C754.843 168.909 755.095 168.811 755.235 168.755L755.613 170.372C755.417 170.47 755.074 170.589 754.584 170.729C754.094 170.883 753.534 170.96 752.904 170.96C752.162 170.96 751.546 170.869 751.056 170.687C750.58 170.491 750.195 170.204 749.901 169.826C749.607 169.448 749.397 168.986 749.271 168.44C749.159 167.88 749.103 167.236 749.103 166.508V156.764L751.056 156.428V159.809ZM760.219 169.322C761.017 169.322 761.605 169.217 761.983 169.007C762.375 168.797 762.571 168.461 762.571 167.999C762.571 167.523 762.382 167.145 762.004 166.865C761.626 166.585 761.003 166.27 760.135 165.92C759.715 165.752 759.309 165.584 758.917 165.416C758.539 165.234 758.21 165.024 757.93 164.786C757.65 164.548 757.426 164.261 757.258 163.925C757.09 163.589 757.006 163.176 757.006 162.686C757.006 161.72 757.363 160.957 758.077 160.397C758.791 159.823 759.764 159.536 760.996 159.536C761.304 159.536 761.612 159.557 761.92 159.599C762.228 159.627 762.515 159.669 762.781 159.725C763.047 159.767 763.278 159.816 763.474 159.872C763.684 159.928 763.845 159.977 763.957 160.019L763.6 161.699C763.39 161.587 763.061 161.475 762.613 161.363C762.165 161.237 761.626 161.174 760.996 161.174C760.45 161.174 759.974 161.286 759.568 161.51C759.162 161.72 758.959 162.056 758.959 162.518C758.959 162.756 759.001 162.966 759.085 163.148C759.183 163.33 759.323 163.498 759.505 163.652C759.701 163.792 759.939 163.925 760.219 164.051C760.499 164.177 760.835 164.31 761.227 164.45C761.745 164.646 762.207 164.842 762.613 165.038C763.019 165.22 763.362 165.437 763.642 165.689C763.936 165.941 764.16 166.249 764.314 166.613C764.468 166.963 764.545 167.397 764.545 167.915C764.545 168.923 764.167 169.686 763.411 170.204C762.669 170.722 761.605 170.981 760.219 170.981C759.253 170.981 758.497 170.897 757.951 170.729C757.405 170.575 757.034 170.456 756.838 170.372L757.195 168.692C757.419 168.776 757.776 168.902 758.266 169.07C758.756 169.238 759.407 169.322 760.219 169.322Z" fill="white"/>
<g clip-path="url(#clip0)">
<path d="M403.497 216.097C403.497 226.384 412.157 234.722 422.839 234.722H534.156C544.839 234.722 553.497 226.383 553.497 216.097V108.903C553.497 98.6153 544.838 90.2776 534.156 90.2776H422.839C412.156 90.2776 403.497 98.6164 403.497 108.902V216.097V216.097Z" fill="#563D7C"/>
<path d="M465.7 154.17V133.715H484.397C486.179 133.715 487.895 133.858 489.549 134.144C491.202 134.429 492.666 134.94 493.938 135.675C495.209 136.41 496.227 137.431 496.99 138.737C497.753 140.044 498.135 141.718 498.135 143.759C498.135 147.433 496.99 150.088 494.701 151.72C492.411 153.354 489.486 154.17 485.924 154.17H465.7V154.17ZM445.729 118.771V206.228H489.74C493.81 206.228 497.775 205.738 501.633 204.758C505.492 203.778 508.926 202.268 511.936 200.226C514.946 198.185 517.342 195.551 519.123 192.326C520.904 189.1 521.794 185.282 521.794 180.873C521.794 175.401 520.416 170.727 517.66 166.848C514.904 162.969 510.728 160.254 505.131 158.702C509.201 156.825 512.276 154.415 514.353 151.476C516.431 148.536 517.469 144.862 517.469 140.452C517.469 136.369 516.77 132.939 515.371 130.163C513.971 127.387 512 125.161 509.456 123.487C506.912 121.813 503.859 120.609 500.297 119.874C496.736 119.139 492.793 118.771 488.468 118.771H445.729V118.771ZM465.7 191.284V167.276H487.45C491.775 167.276 495.252 168.236 497.881 170.155C500.509 172.074 501.824 175.279 501.824 179.77C501.824 182.057 501.421 183.935 500.616 185.405C499.81 186.875 498.729 188.039 497.372 188.896C496.015 189.753 494.446 190.366 492.666 190.733C490.884 191.1 489.019 191.284 487.069 191.284H465.7V191.284Z" fill="white"/>
</g>
<path d="M416.997 419.94H566.997V564.384H416.997V419.94Z" fill="#F7DF1E"/>
<path d="M456.441 540.647L467.92 533.958C470.134 537.739 472.149 540.938 476.981 540.938C481.613 540.938 484.534 539.193 484.534 532.407V486.253H498.63V532.599C498.63 546.658 490.071 553.057 477.585 553.057C466.309 553.057 459.763 547.433 456.44 540.646" fill="black"/>
<path d="M506.285 539.193L517.762 532.794C520.784 537.545 524.71 541.036 531.657 541.036C537.499 541.036 541.223 538.224 541.223 534.345C541.223 529.691 537.397 528.043 530.952 525.329L527.429 523.873C517.259 519.705 510.513 514.469 510.513 503.415C510.513 493.234 518.568 485.477 531.155 485.477C540.116 485.477 546.56 488.483 551.191 496.337L540.216 503.125C537.799 498.956 535.182 497.307 531.154 497.307C527.026 497.307 524.408 499.828 524.408 503.125C524.408 507.197 527.026 508.846 533.067 511.367L536.59 512.821C548.573 517.767 555.319 522.808 555.319 534.152C555.319 546.37 545.351 553.059 531.959 553.059C518.87 553.059 510.412 547.048 506.284 539.194" fill="black"/>
<path d="M809.918 452.56C809.973 452.752 810.002 452.95 810.002 453.149V484.1C810.002 484.908 809.539 485.655 808.787 486.057L780.969 501.014V530.658C780.969 531.055 780.857 531.445 780.645 531.788C780.433 532.132 780.128 532.418 779.761 532.617L721.689 563.832C721.556 563.902 721.412 563.947 721.266 563.996C721.212 564.012 721.161 564.044 721.104 564.058C720.698 564.158 720.271 564.158 719.865 564.058C719.798 564.041 719.738 564.007 719.674 563.985C719.541 563.939 719.403 563.9 719.276 563.832L661.217 532.616C660.848 532.418 660.541 532.133 660.328 531.789C660.115 531.446 660.002 531.056 660.002 530.658V437.807C660.002 437.603 660.032 437.406 660.086 437.214C660.104 437.149 660.147 437.09 660.171 437.025C660.216 436.907 660.259 436.785 660.325 436.675C660.371 436.602 660.437 436.543 660.491 436.475C660.561 436.385 660.624 436.292 660.706 436.213C660.775 436.148 660.866 436.1 660.945 436.043C661.033 435.976 661.111 435.902 661.21 435.849H661.213L690.244 420.241C690.612 420.043 691.028 419.94 691.452 419.94C691.877 419.94 692.293 420.043 692.661 420.241L721.692 435.849H721.698C721.794 435.906 721.876 435.976 721.964 436.041C722.042 436.097 722.13 436.148 722.199 436.21C722.284 436.292 722.345 436.385 722.417 436.475C722.468 436.543 722.538 436.602 722.58 436.675C722.649 436.788 722.688 436.907 722.737 437.026C722.761 437.09 722.803 437.149 722.821 437.217C722.877 437.409 722.906 437.608 722.906 437.807V495.8L747.097 482.793V453.146C747.097 452.949 747.128 452.749 747.182 452.56C747.204 452.492 747.243 452.433 747.267 452.368C747.315 452.25 747.358 452.128 747.424 452.018C747.469 451.945 747.535 451.886 747.587 451.818C747.659 451.728 747.72 451.635 747.804 451.555C747.874 451.491 747.962 451.443 748.04 451.386C748.131 451.318 748.21 451.245 748.306 451.192H748.309L777.343 435.584C777.71 435.386 778.127 435.282 778.551 435.282C778.976 435.282 779.392 435.386 779.76 435.584L808.791 451.192C808.893 451.248 808.972 451.318 809.063 451.383C809.138 451.44 809.226 451.491 809.295 451.553C809.38 451.635 809.44 451.728 809.512 451.818C809.567 451.886 809.633 451.945 809.676 452.018C809.745 452.128 809.785 452.25 809.833 452.368C809.86 452.433 809.899 452.492 809.918 452.56V452.56ZM805.163 482.794V457.056L795.003 462.517L780.968 470.063V495.801L805.166 482.794H805.163V482.794ZM776.132 529.352V503.597L762.326 510.96L722.904 531.97V557.967L776.132 529.351V529.352ZM664.841 441.713V529.352L718.064 557.964V531.973L690.26 517.279L690.251 517.273L690.239 517.268C690.146 517.217 690.066 517.144 689.979 517.082C689.903 517.025 689.816 516.98 689.749 516.918L689.744 516.909C689.665 516.839 689.611 516.751 689.544 516.672C689.483 516.596 689.411 516.531 689.363 516.452L689.36 516.444C689.305 516.359 689.272 516.258 689.233 516.162C689.193 516.077 689.142 515.998 689.118 515.908V515.905C689.088 515.798 689.082 515.685 689.07 515.575C689.058 515.491 689.033 515.406 689.033 515.321V454.721L675.001 447.172L664.841 441.717V441.713ZM691.456 424.805L667.267 437.807L691.45 450.808L715.635 437.804L691.45 424.805H691.456ZM704.035 505.945L718.067 498.402V441.713L707.908 447.175L693.872 454.721V511.408L704.035 505.945V505.945ZM778.551 440.148L754.366 453.149L778.551 466.151L802.733 453.146L778.552 440.148H778.551ZM776.131 470.063L762.096 462.517L751.937 457.056V482.794L765.969 490.337L776.132 495.801V470.063H776.131ZM720.481 528.063L755.955 509.152L773.688 499.702L749.52 486.709L721.695 501.668L696.334 515.301L720.481 528.063Z" fill="#FF2D20"/>
<path d="M248.247 546.007C289.668 546.007 323.247 521.828 323.247 492.001C323.247 462.174 289.668 437.995 248.247 437.995C206.825 437.995 173.247 462.174 173.247 492.001C173.247 521.828 206.825 546.007 248.247 546.007Z" fill="url(#paint1_radial)"/>
<path d="M248.247 541.994C288.05 541.994 320.317 519.611 320.317 492.001C320.317 464.39 288.05 442.007 248.247 442.007C208.443 442.007 176.176 464.39 176.176 492.001C176.176 519.611 208.443 541.994 248.247 541.994Z" fill="#6181B6"/>
<path d="M262.839 508.211L266.414 483.014C267.234 477.316 266.531 473.063 264.421 470.415C262.371 467.847 258.855 466.563 253.699 466.563H247.488L249.246 454.044C249.304 453.563 249.246 453.081 249.011 452.68C248.777 452.279 248.484 452.119 248.132 452.119H239.578C238.992 452.119 238.523 452.68 238.406 453.402L234.597 480.125C234.246 477.075 233.425 474.507 232.019 472.421C229.499 468.489 225.574 466.483 220.242 466.483H203.777C203.191 466.483 202.722 467.044 202.605 467.767L194.929 522.014C194.87 522.495 194.929 522.977 195.163 523.378C195.398 523.779 195.691 523.94 196.042 523.94H204.656C205.242 523.94 205.71 523.378 205.828 522.656L207.703 509.575H214.089C217.429 509.575 220.3 509.094 222.468 508.131C224.753 507.088 226.804 505.403 228.621 503.075C230.085 501.23 231.316 499.143 232.253 496.896L230.73 507.73C230.671 508.211 230.73 508.693 230.964 509.094C231.199 509.495 231.492 509.656 231.843 509.656H240.398C240.984 509.656 241.453 509.094 241.57 508.372L245.789 478.68H251.648C254.167 478.68 254.871 479.322 255.105 479.643C255.281 479.884 255.632 480.847 255.222 483.816L251.824 507.81C251.765 508.291 251.824 508.773 252.058 509.174C252.292 509.575 252.585 509.736 252.937 509.736H261.726C262.253 509.495 262.722 508.933 262.839 508.211ZM223.23 487.347C222.703 491.119 221.706 493.847 220.242 495.372C218.777 496.896 216.374 497.699 213.21 497.699H209.402L212.156 478.279H217.078C220.71 478.279 222.175 479.322 222.761 480.205C223.523 481.489 223.699 483.977 223.23 487.347V487.347Z" fill="white"/>
<path d="M299.398 472.422C296.879 468.49 292.953 466.484 287.621 466.484H271.039C270.453 466.484 269.984 467.046 269.867 467.768L262.191 521.934C262.133 522.416 262.191 522.897 262.426 523.299C262.66 523.7 262.953 523.86 263.305 523.86H271.918C272.504 523.86 272.973 523.299 273.09 522.576L274.965 509.496H281.351C284.691 509.496 287.562 509.015 289.73 508.052C292.016 507.008 294.066 505.323 295.883 502.996C297.406 501.07 298.695 498.904 299.633 496.576C300.57 494.249 301.273 491.681 301.683 488.873C302.68 481.891 301.918 476.434 299.398 472.422V472.422ZM290.433 487.348C289.906 491.12 288.91 493.848 287.445 495.373C285.98 496.897 283.578 497.7 280.414 497.7H276.605L279.359 478.28H284.281C287.914 478.28 289.379 479.323 289.965 480.206C290.785 481.49 290.961 483.978 290.433 487.348Z" fill="white"/>
<path d="M217.075 476.675C220.356 476.675 222.524 477.477 223.637 479.162C224.75 480.848 224.985 483.656 224.399 487.669C223.813 491.841 222.641 494.891 220.942 496.656C219.243 498.422 216.665 499.304 213.208 499.304H207.993L211.215 476.675H217.075V476.675ZM196.098 522.255H204.711L206.762 507.891H214.145C217.426 507.891 220.063 507.409 222.172 506.446C224.282 505.483 226.157 503.959 227.915 501.712C229.379 499.866 230.551 497.86 231.43 495.693C232.309 493.527 232.954 491.119 233.305 488.471C234.243 482.051 233.54 477.076 231.254 473.465C228.969 469.854 225.336 468.088 220.356 468.088H203.774L196.098 522.255Z" fill="#000004"/>
<path d="M239.635 453.723H248.189L246.139 468.087H253.756C258.561 468.087 261.842 469.211 263.658 471.538C265.475 473.865 266.002 477.556 265.299 482.692L261.725 507.89H253.053L256.451 483.896C256.861 481.167 256.686 479.322 256.041 478.359C255.397 477.396 253.932 476.834 251.764 476.834H244.908L240.514 507.89H231.959L239.635 453.723V453.723Z" fill="#000004"/>
<path d="M284.283 476.675C287.564 476.675 289.732 477.477 290.846 479.162C291.959 480.848 292.193 483.656 291.607 487.669C291.021 491.841 289.85 494.891 288.15 496.656C286.451 498.422 283.873 499.304 280.416 499.304H275.201L278.424 476.675H284.283ZM263.307 522.255H271.92L273.971 507.891H281.353C284.635 507.891 287.271 507.409 289.381 506.446C291.49 505.483 293.365 503.959 295.123 501.712C296.588 499.866 297.76 497.86 298.639 495.693C299.518 493.527 300.162 491.119 300.514 488.471C301.451 482.051 300.748 477.076 298.463 473.465C296.178 469.854 292.545 468.088 287.564 468.088H270.982L263.307 522.255Z" fill="#000004"/>
<path fill-rule="evenodd" clip-rule="evenodd" d="M921.646 542.158C921.535 541.968 921.436 541.771 921.35 541.568C920.751 540.226 920.566 538.745 920.819 537.304H885.371L938.05 447.568L955.344 476.996L960.358 468.406L945.283 442.698C944.861 441.957 942.315 437.995 937.925 437.995C935.941 437.995 933.098 438.827 930.786 442.759L877.42 533.584C876.967 534.37 874.764 538.499 876.951 542.158C877.951 543.822 880.076 545.803 884.763 545.803H929.458C924.802 545.803 922.646 543.852 921.646 542.158V542.158Z" fill="#01C58E"/>
<path fill-rule="evenodd" clip-rule="evenodd" d="M1024.41 533.583L980.558 458.803C980.105 458.017 977.574 454.04 973.168 454.04C971.185 454.04 968.342 454.856 966.029 458.788L960.359 468.406L965.404 476.995L973.216 463.613L1016.6 537.304H1000.1C1000.31 538.522 1000.19 539.772 999.758 540.933C999.666 541.19 999.551 541.437 999.414 541.674L999.274 541.947C997.055 545.606 992.259 545.802 991.322 545.802H1017.13C1018.08 545.802 1022.86 545.606 1025.08 541.947C1026.07 540.283 1026.77 537.485 1024.41 533.583V533.583Z" fill="#108775"/>
<path fill-rule="evenodd" clip-rule="evenodd" d="M999.277 541.946L999.418 541.674C999.554 541.437 999.67 541.189 999.761 540.933C1000.2 539.772 1000.32 538.522 1000.11 537.304C999.862 535.99 999.375 534.729 998.667 533.583L965.439 476.996L960.362 468.406L955.316 476.995L922.103 533.583C921.458 534.743 921.025 536.002 920.822 537.304C920.555 538.741 920.723 540.222 921.306 541.568C921.393 541.771 921.492 541.967 921.603 542.158C922.603 543.821 924.728 545.802 929.414 545.802H991.279C992.263 545.802 997.059 545.606 999.277 541.946V541.946ZM960.362 485.585L990.732 537.304H930.008L960.362 485.585V485.585Z" fill="#2F495E"/>
<defs>
<linearGradient id="paint0_linear" x1="655.835" y1="312.771" x2="790.411" y2="384.322" gradientUnits="userSpaceOnUse">
<stop stop-color="#2298BD"/>
<stop offset="1" stop-color="#0ED7B5"/>
</linearGradient>
<radialGradient id="paint1_radial" cx="0" cy="0" r="1" gradientUnits="userSpaceOnUse" gradientTransform="translate(218.277 456.987) scale(98.4934 134.891)">
<stop stop-color="white"/>
<stop offset="0.5" stop-color="#4C6B97"/>
<stop offset="1" stop-color="#231F20"/>
</radialGradient>
<clipPath id="clip0">
<rect width="150" height="144.444" fill="white" transform="translate(403.497 90.2776)"/>
</clipPath>
</defs>
</svg>
