<svg width="80" height="56" viewBox="0 0 80 56" fill="none" xmlns="http://www.w3.org/2000/svg">
<path d="M26.3718 0.646726C19.5812 2.0977 14.1256 5.14476 8.93106 10.3102C3.04009 16.2302 0.341271 21.831 0.0510749 28.7957C-0.123043 32.6843 0.109114 33.8741 1.35696 35.3541C3.6495 38.082 8.69891 37.9079 11.4267 35.0349C12.2103 34.1934 12.2393 34.0773 11.775 33.8161C9.74361 32.6553 9.97577 26.242 12.2683 20.7863C14.793 14.8373 19.233 10.4553 24.6307 8.56907C27.0973 7.7275 31.3052 7.64044 33.5397 8.39495C36.5287 9.43966 38.9083 12.4287 39.6918 16.0851C40.2722 18.842 40.2722 18.871 38.3569 18.6389C34.3522 18.2036 33.3946 19.1902 25.3561 32.1039C20.655 39.649 18.4205 42.6961 15.5185 45.6271C12.5875 48.529 11.2236 49.3416 9.16322 49.3706H7.7993L7.97342 50.2412C8.29263 51.7792 9.33734 53.6655 10.4691 54.7973L11.5718 55.9H14.5318C17.3177 55.9 17.5499 55.842 18.8558 55.0004C22.8605 52.4467 27.4746 45.9463 36.2095 30.653C38.7051 26.3 40.6204 23.224 40.7365 23.3981C40.9977 23.8043 40.7365 29.8114 40.1271 38.2271C39.5177 46.7588 39.5177 46.2075 40.4463 47.1941C41.5781 48.3839 43.4063 48.7612 45.96 48.3549C47.0628 48.1808 48.3106 47.8906 48.6879 47.6875C49.1522 47.4553 52.1702 43.1314 57.0745 35.7314C61.2824 29.3471 64.8228 23.9204 64.9679 23.6883C65.5192 22.7306 65.4612 23.6883 64.7937 26.1549C62.5883 34.2514 61.1953 41.5643 61.1953 45.0177C61.2243 48.471 62.0949 50.1251 64.4745 51.1118C66.651 52.0114 70.3655 51.402 72.2808 49.8059L73.2384 48.9933L72.542 47.7745C71.9326 46.6718 71.8455 46.1784 71.8745 43.6828C71.9326 38.9816 73.2384 31.3204 75.4149 22.9628C76.6627 18.2326 78.6071 11.9644 79.4776 9.93299L80 8.65613L78.2298 7.84358C75.4439 6.59574 72.3388 6.5377 70.4816 7.69848C70.2494 7.8726 69.7271 8.04672 69.3208 8.13378C68.7404 8.27887 66.68 11.0938 59.7443 21.2216C54.869 28.3314 50.7773 34.1353 50.6612 34.1353C50.5161 34.1353 50.5161 33.8741 50.6032 33.5549C50.7193 33.2357 50.8063 29.8694 50.8063 26.0679C50.8643 16.7816 50.2549 13.3573 47.7883 8.54005C45.6989 4.47731 41.9844 1.72045 37.1961 0.646726C34.6134 0.0663341 29.0126 0.0663341 26.3718 0.646726Z" fill="white"/>
</svg>
