<svg width="417" height="419" viewBox="0 0 417 419" fill="none" xmlns="http://www.w3.org/2000/svg">
<path d="M40.814 183.738C39.1204 177.389 39.1202 170.703 40.8134 164.354C42.5065 158.004 45.8334 152.214 50.4595 147.566L146.858 50.7043C151.484 46.0559 157.246 42.7131 163.565 41.0118C169.884 39.3105 176.538 39.3107 182.857 41.0125L273.062 65.299C274 52.8818 278.303 40.9593 285.503 30.8228L176.858 1.57448C169.059 -0.524873 160.849 -0.52483 153.051 1.57462C145.252 3.67408 138.142 7.79899 132.433 13.5348L13.47 133.069C7.76164 138.806 3.65649 145.951 1.56709 153.786C-0.522318 161.622 -0.522363 169.872 1.56695 177.708L31.7951 291.062C41.6768 283.48 53.4416 278.77 65.8055 277.45L40.814 183.738Z" fill="#2B5C94"/>
<path d="M350.359 138.418L376.185 235.261C377.88 241.612 377.877 248.297 376.185 254.645C374.491 260.996 371.164 266.785 366.538 271.433L270.139 368.297C265.513 372.945 259.752 376.287 253.431 377.989C247.113 379.689 240.458 379.689 234.14 377.989L140.877 352.878C139.563 365.301 134.877 377.123 127.33 387.051L240.142 417.425C247.939 419.525 256.15 419.525 263.948 417.425C271.747 415.325 278.857 411.201 284.567 405.465L403.529 285.93C409.239 280.193 413.342 273.049 415.432 265.212C417.523 257.377 417.523 249.126 415.432 241.291L384.064 123.693C374.391 131.626 362.728 136.722 350.359 138.418Z" fill="#2B5C94"/>
<path d="M34.5074 306.696C26.8672 314.371 21.6642 324.154 19.5562 334.801C17.4483 345.45 18.5301 356.487 22.6649 366.518C26.7996 376.546 33.8016 385.119 42.7852 391.152C51.7691 397.182 62.3309 400.403 73.1358 400.403C83.9403 400.403 94.5024 397.182 103.486 391.152C112.47 385.119 119.472 376.546 123.607 366.518C127.741 356.487 128.823 345.45 126.715 334.801C124.607 324.154 119.404 314.371 111.764 306.696C101.511 296.417 87.6192 290.644 73.1358 290.644C58.6523 290.644 44.7602 296.417 34.5074 306.696Z" fill="#5E8EC3"/>
<path d="M302.403 31.8434C294.764 39.5201 289.559 49.3008 287.453 59.9489C285.345 70.5968 286.426 81.6338 290.561 91.6641C294.696 101.694 301.697 110.267 310.68 116.299C319.665 122.331 330.227 125.55 341.03 125.55C351.836 125.55 362.398 122.331 371.383 116.299C380.366 110.267 387.367 101.694 391.502 91.6641C395.637 81.6338 396.718 70.5968 394.61 59.9489C392.504 49.3008 387.299 39.5201 379.66 31.8434C369.408 21.5644 355.514 15.7916 341.03 15.7916C326.549 15.7916 312.655 21.5644 302.403 31.8434Z" fill="#5E8EC3"/>
<path d="M240.869 355.003C238.675 355.003 236.492 354.714 234.373 354.143L149.002 331.157C146.155 315.883 138.781 301.829 127.845 290.842C116.909 279.854 102.923 272.442 87.7222 269.583L64.8481 183.808C63.7141 179.53 63.7173 175.027 64.8578 170.751C65.9984 166.474 68.236 162.573 71.347 159.438L158.971 71.3904C162.088 68.2583 165.97 66.006 170.228 64.8595C174.486 63.7133 178.97 63.7135 183.227 64.8602L266.205 87.2011C269.496 102.381 277.273 116.208 288.518 126.871C299.763 137.534 313.95 144.536 329.222 146.959L352.747 235.2C353.881 239.48 353.878 243.983 352.736 248.258C351.596 252.536 349.359 256.436 346.246 259.573L258.622 347.618C256.297 349.966 253.528 351.83 250.481 353.096C247.434 354.364 244.168 355.012 240.869 355.003Z" fill="#5E8EC3"/>
<path d="M109.14 220.62C109.14 222.62 108.92 224.48 108.48 226.2C108.08 227.92 107.34 229.44 106.26 230.76C105.22 232.04 103.8 233.06 102 233.82C100.24 234.54 98.02 234.9 95.34 234.9C93.98 234.9 92.72 234.78 91.56 234.54C90.44 234.34 89.42 234.08 88.5 233.76C87.58 233.4 86.78 233.04 86.1 232.68C85.42 232.28 84.88 231.9 84.48 231.54L86.76 226.92C87.6 227.52 88.68 228.16 90 228.84C91.36 229.48 93.04 229.8 95.04 229.8C97.92 229.8 100.02 229.08 101.34 227.64C102.66 226.16 103.32 223.64 103.32 220.08V192.42H109.14V220.62ZM146.34 218.4C146.34 220.88 145.98 223.12 145.26 225.12C144.54 227.12 143.52 228.84 142.2 230.28C140.92 231.72 139.38 232.84 137.58 233.64C135.78 234.4 133.82 234.78 131.7 234.78C129.58 234.78 127.62 234.4 125.82 233.64C124.02 232.84 122.46 231.72 121.14 230.28C119.86 228.84 118.86 227.12 118.14 225.12C117.42 223.12 117.06 220.88 117.06 218.4C117.06 215.96 117.42 213.74 118.14 211.74C118.86 209.7 119.86 207.96 121.14 206.52C122.46 205.08 124.02 203.98 125.82 203.22C127.62 202.42 129.58 202.02 131.7 202.02C133.82 202.02 135.78 202.42 137.58 203.22C139.38 203.98 140.92 205.08 142.2 206.52C143.52 207.96 144.54 209.7 145.26 211.74C145.98 213.74 146.34 215.96 146.34 218.4ZM140.52 218.4C140.52 214.88 139.72 212.1 138.12 210.06C136.56 207.98 134.42 206.94 131.7 206.94C128.98 206.94 126.82 207.98 125.22 210.06C123.66 212.1 122.88 214.88 122.88 218.4C122.88 221.92 123.66 224.72 125.22 226.8C126.82 228.84 128.98 229.86 131.7 229.86C134.42 229.86 136.56 228.84 138.12 226.8C139.72 224.72 140.52 221.92 140.52 218.4ZM173.719 207C172.879 207.92 171.759 209.22 170.359 210.9C168.999 212.58 167.519 214.44 165.919 216.48C164.359 218.52 162.779 220.66 161.179 222.9C159.619 225.14 158.239 227.28 157.039 229.32H174.199V234H150.379V230.28C151.339 228.52 152.519 226.58 153.919 224.46C155.319 222.34 156.779 220.24 158.299 218.16C159.859 216.04 161.359 214.06 162.799 212.22C164.279 210.34 165.559 208.76 166.639 207.48H151.219V202.8H173.719V207ZM191.821 229.98C193.141 229.98 194.301 229.96 195.301 229.92C196.341 229.84 197.201 229.72 197.881 229.56V220.26C197.481 220.06 196.821 219.9 195.901 219.78C195.021 219.62 193.941 219.54 192.661 219.54C191.821 219.54 190.921 219.6 189.961 219.72C189.041 219.84 188.181 220.1 187.381 220.5C186.621 220.86 185.981 221.38 185.461 222.06C184.941 222.7 184.681 223.56 184.681 224.64C184.681 226.64 185.321 228.04 186.601 228.84C187.881 229.6 189.621 229.98 191.821 229.98ZM191.341 202.02C193.581 202.02 195.461 202.32 196.981 202.92C198.541 203.48 199.781 204.3 200.701 205.38C201.661 206.42 202.341 207.68 202.741 209.16C203.141 210.6 203.341 212.2 203.341 213.96V233.46C202.861 233.54 202.181 233.66 201.301 233.82C200.461 233.94 199.501 234.06 198.421 234.18C197.341 234.3 196.161 234.4 194.881 234.48C193.641 234.6 192.401 234.66 191.161 234.66C189.401 234.66 187.781 234.48 186.301 234.12C184.821 233.76 183.541 233.2 182.461 232.44C181.381 231.64 180.541 230.6 179.941 229.32C179.341 228.04 179.041 226.5 179.041 224.7C179.041 222.98 179.381 221.5 180.061 220.26C180.781 219.02 181.741 218.02 182.941 217.26C184.141 216.5 185.541 215.94 187.141 215.58C188.741 215.22 190.421 215.04 192.181 215.04C192.741 215.04 193.321 215.08 193.921 215.16C194.521 215.2 195.081 215.28 195.601 215.4C196.161 215.48 196.641 215.56 197.041 215.64C197.441 215.72 197.721 215.78 197.881 215.82V214.26C197.881 213.34 197.781 212.44 197.581 211.56C197.381 210.64 197.021 209.84 196.501 209.16C195.981 208.44 195.261 207.88 194.341 207.48C193.461 207.04 192.301 206.82 190.861 206.82C189.021 206.82 187.401 206.96 186.001 207.24C184.641 207.48 183.621 207.74 182.941 208.02L182.281 203.4C183.001 203.08 184.201 202.78 185.881 202.5C187.561 202.18 189.381 202.02 191.341 202.02ZM232.169 230.88C231.689 231.2 230.749 231.62 229.349 232.14C227.989 232.62 226.389 232.86 224.549 232.86C222.669 232.86 220.889 232.56 219.209 231.96C217.569 231.36 216.129 230.44 214.889 229.2C213.649 227.92 212.669 226.34 211.949 224.46C211.229 222.58 210.869 220.34 210.869 217.74C210.869 215.46 211.209 213.38 211.889 211.5C212.569 209.58 213.549 207.94 214.829 206.58C216.149 205.18 217.749 204.1 219.629 203.34C221.509 202.54 223.629 202.14 225.989 202.14C228.589 202.14 230.849 202.34 232.769 202.74C234.729 203.1 236.369 203.44 237.689 203.76V231.6C237.689 236.4 236.449 239.88 233.969 242.04C231.489 244.2 227.729 245.28 222.689 245.28C220.729 245.28 218.869 245.12 217.109 244.8C215.389 244.48 213.889 244.1 212.609 243.66L213.629 238.8C214.749 239.24 216.109 239.62 217.709 239.94C219.349 240.3 221.049 240.48 222.809 240.48C226.129 240.48 228.509 239.82 229.949 238.5C231.429 237.18 232.169 235.08 232.169 232.2V230.88ZM232.109 207.72C231.549 207.56 230.789 207.42 229.829 207.3C228.909 207.14 227.649 207.06 226.049 207.06C223.049 207.06 220.729 208.04 219.089 210C217.489 211.96 216.689 214.56 216.689 217.8C216.689 219.6 216.909 221.14 217.349 222.42C217.829 223.7 218.449 224.76 219.209 225.6C220.009 226.44 220.909 227.06 221.909 227.46C222.949 227.86 224.009 228.06 225.089 228.06C226.569 228.06 227.929 227.86 229.169 227.46C230.409 227.02 231.389 226.52 232.109 225.96V207.72ZM272.136 233.1C270.856 233.42 269.156 233.76 267.036 234.12C264.956 234.48 262.536 234.66 259.776 234.66C257.376 234.66 255.356 234.32 253.716 233.64C252.076 232.92 250.756 231.92 249.756 230.64C248.756 229.36 248.036 227.86 247.596 226.14C247.156 224.38 246.936 222.44 246.936 220.32V202.8H252.516V219.12C252.516 222.92 253.116 225.64 254.316 227.28C255.516 228.92 257.536 229.74 260.376 229.74C260.976 229.74 261.596 229.72 262.236 229.68C262.876 229.64 263.476 229.6 264.036 229.56C264.596 229.48 265.096 229.42 265.536 229.38C266.016 229.3 266.356 229.22 266.556 229.14V202.8H272.136V233.1ZM286.969 202.8H298.789V207.48H286.969V221.88C286.969 223.44 287.089 224.74 287.329 225.78C287.569 226.78 287.929 227.58 288.409 228.18C288.889 228.74 289.489 229.14 290.209 229.38C290.929 229.62 291.769 229.74 292.729 229.74C294.409 229.74 295.749 229.56 296.749 229.2C297.789 228.8 298.509 228.52 298.909 228.36L299.989 232.98C299.429 233.26 298.449 233.6 297.049 234C295.649 234.44 294.049 234.66 292.249 234.66C290.129 234.66 288.369 234.4 286.969 233.88C285.609 233.32 284.509 232.5 283.669 231.42C282.829 230.34 282.229 229.02 281.869 227.46C281.549 225.86 281.389 224.02 281.389 221.94V194.1L286.969 193.14V202.8ZM313.15 229.98C315.43 229.98 317.11 229.68 318.19 229.08C319.31 228.48 319.87 227.52 319.87 226.2C319.87 224.84 319.33 223.76 318.25 222.96C317.17 222.16 315.39 221.26 312.91 220.26C311.71 219.78 310.55 219.3 309.43 218.82C308.35 218.3 307.41 217.7 306.61 217.02C305.81 216.34 305.17 215.52 304.69 214.56C304.21 213.6 303.97 212.42 303.97 211.02C303.97 208.26 304.99 206.08 307.03 204.48C309.07 202.84 311.85 202.02 315.37 202.02C316.25 202.02 317.13 202.08 318.01 202.2C318.89 202.28 319.71 202.4 320.47 202.56C321.23 202.68 321.89 202.82 322.45 202.98C323.05 203.14 323.51 203.28 323.83 203.4L322.81 208.2C322.21 207.88 321.27 207.56 319.99 207.24C318.71 206.88 317.17 206.7 315.37 206.7C313.81 206.7 312.45 207.02 311.29 207.66C310.13 208.26 309.55 209.22 309.55 210.54C309.55 211.22 309.67 211.82 309.91 212.34C310.19 212.86 310.59 213.34 311.11 213.78C311.67 214.18 312.35 214.56 313.15 214.92C313.95 215.28 314.91 215.66 316.03 216.06C317.51 216.62 318.83 217.18 319.99 217.74C321.15 218.26 322.13 218.88 322.93 219.6C323.77 220.32 324.41 221.2 324.85 222.24C325.29 223.24 325.51 224.48 325.51 225.96C325.51 228.84 324.43 231.02 322.27 232.5C320.15 233.98 317.11 234.72 313.15 234.72C310.39 234.72 308.23 234.48 306.67 234C305.11 233.56 304.05 233.22 303.49 232.98L304.51 228.18C305.15 228.42 306.17 228.78 307.57 229.26C308.97 229.74 310.83 229.98 313.15 229.98Z" fill="white"/>
</svg>
