<svg width="417" height="419" viewBox="0 0 417 419" fill="none" xmlns="http://www.w3.org/2000/svg">
<path d="M40.814 183.738C39.1204 177.389 39.1202 170.703 40.8134 164.354C42.5065 158.004 45.8334 152.214 50.4595 147.566L146.858 50.7043C151.484 46.0559 157.246 42.7131 163.565 41.0118C169.884 39.3105 176.538 39.3107 182.857 41.0125L273.062 65.299C274 52.8818 278.303 40.9593 285.503 30.8228L176.858 1.57448C169.059 -0.524873 160.849 -0.52483 153.051 1.57462C145.252 3.67408 138.142 7.79899 132.433 13.5348L13.47 133.069C7.76164 138.806 3.65649 145.951 1.56709 153.786C-0.522318 161.622 -0.522363 169.872 1.56695 177.708L31.7951 291.062C41.6768 283.48 53.4416 278.77 65.8055 277.45L40.814 183.738Z" fill="#2B5C94"/>
<path d="M350.359 138.418L376.185 235.261C377.88 241.612 377.877 248.297 376.185 254.645C374.491 260.996 371.164 266.785 366.538 271.433L270.139 368.297C265.513 372.945 259.752 376.287 253.431 377.989C247.113 379.689 240.458 379.689 234.14 377.989L140.877 352.878C139.563 365.302 134.877 377.123 127.33 387.051L240.142 417.425C247.939 419.525 256.15 419.525 263.948 417.425C271.747 415.325 278.857 411.201 284.567 405.465L403.529 285.93C409.239 280.193 413.342 273.049 415.432 265.212C417.523 257.377 417.523 249.126 415.432 241.291L384.064 123.693C374.392 131.626 362.728 136.722 350.359 138.418Z" fill="#2B5C94"/>
<path d="M34.5075 306.696C26.8673 314.371 21.6643 324.154 19.5563 334.801C17.4484 345.45 18.5302 356.487 22.665 366.518C26.7997 376.546 33.8017 385.119 42.7853 391.152C51.7692 397.182 62.3311 400.403 73.1359 400.403C83.9405 400.403 94.5026 397.182 103.486 391.152C112.47 385.119 119.472 376.546 123.607 366.518C127.742 356.487 128.823 345.45 126.715 334.801C124.607 324.154 119.404 314.371 111.764 306.696C101.511 296.417 87.6193 290.644 73.1359 290.644C58.6525 290.644 44.7604 296.417 34.5075 306.696Z" fill="#5E8EC3"/>
<path d="M302.403 31.8434C294.764 39.52 289.559 49.3008 287.453 59.9489C285.345 70.5968 286.426 81.6338 290.561 91.6641C294.696 101.694 301.697 110.267 310.68 116.299C319.665 122.331 330.227 125.55 341.03 125.55C351.836 125.55 362.398 122.331 371.383 116.299C380.366 110.267 387.367 101.694 391.502 91.6641C395.637 81.6338 396.718 70.5968 394.61 59.9489C392.504 49.3008 387.299 39.52 379.66 31.8434C369.408 21.5644 355.514 15.7916 341.03 15.7916C326.548 15.7916 312.655 21.5644 302.403 31.8434Z" fill="#5E8EC3"/>
<path d="M240.869 355.003C238.675 355.003 236.492 354.714 234.373 354.143L149.002 331.157C146.155 315.883 138.781 301.829 127.845 290.842C116.909 279.854 102.923 272.442 87.7222 269.583L64.8481 183.808C63.7141 179.53 63.7173 175.027 64.8578 170.751C65.9984 166.474 68.236 162.573 71.347 159.438L158.971 71.3904C162.088 68.2583 165.97 66.006 170.228 64.8595C174.486 63.7133 178.97 63.7135 183.227 64.8602L266.205 87.2011C269.496 102.381 277.273 116.208 288.518 126.871C299.763 137.534 313.95 144.536 329.222 146.959L352.747 235.2C353.881 239.48 353.878 243.983 352.736 248.258C351.596 252.536 349.359 256.436 346.246 259.573L258.622 347.618C256.297 349.966 253.528 351.83 250.481 353.096C247.434 354.364 244.168 355.012 240.869 355.003Z" fill="#5E8EC3"/>
<path d="M191.042 239.421C191.042 245.188 190.407 250.551 189.139 255.51C187.985 260.469 185.852 264.852 182.738 268.658C179.739 272.349 175.645 275.29 170.455 277.481C165.38 279.557 158.979 280.595 151.252 280.595C147.33 280.595 143.697 280.249 140.353 279.557C137.123 278.98 134.182 278.231 131.53 277.308C128.877 276.27 126.57 275.232 124.61 274.194C122.649 273.041 121.092 271.945 119.939 270.907L126.513 257.586C128.935 259.316 132.049 261.161 135.855 263.122C139.776 264.967 144.62 265.89 150.387 265.89C158.691 265.89 164.746 263.814 168.552 259.662C172.358 255.395 174.261 248.129 174.261 237.864V158.111H191.042V239.421ZM275.539 200.15C273.117 202.803 269.887 206.551 265.851 211.395C261.929 216.239 257.662 221.602 253.049 227.484C248.551 233.366 243.995 239.536 239.382 245.995C234.884 252.454 230.905 258.624 227.445 264.506H276.923V278H208.242V267.274C211.01 262.199 214.412 256.606 218.449 250.493C222.485 244.38 226.695 238.325 231.078 232.328C235.576 226.215 239.901 220.506 244.053 215.201C248.32 209.78 252.011 205.225 255.125 201.534H210.664V188.04H275.539V200.15Z" fill="white"/>
</svg>
