<svg width="100" height="100" viewBox="0 0 100 100" fill="none" xmlns="http://www.w3.org/2000/svg">
<path d="M99.9438 22.5834C99.9809 22.7163 100 22.8534 100 22.9913V44.4186C100 44.9784 99.6914 45.4955 99.1902 45.7739L80.6445 56.1288V76.6515C80.6446 76.9261 80.5702 77.1959 80.4289 77.4339C80.2875 77.6718 80.0841 77.8695 79.8391 78.0072L41.125 99.6182C41.0363 99.6666 40.9398 99.6977 40.843 99.7314C40.8066 99.7428 40.7727 99.7644 40.7344 99.7742C40.4637 99.8433 40.1792 99.8433 39.9086 99.7742C39.8641 99.7629 39.8238 99.739 39.7816 99.7235C39.693 99.692 39.6004 99.6648 39.516 99.6182L0.809766 78.0068C0.563805 77.8699 0.35943 77.6725 0.217258 77.4346C0.0750861 77.1966 0.000146626 76.9265 0 76.6515L0 12.3697C0 12.2288 0.0203125 12.0921 0.05625 11.9595C0.0683594 11.9144 0.0964844 11.8735 0.112891 11.8284C0.142969 11.7466 0.171484 11.6625 0.215625 11.5864C0.245703 11.5356 0.289844 11.4947 0.326172 11.4478C0.372656 11.3853 0.414844 11.3209 0.469141 11.2659C0.515625 11.2212 0.576172 11.1879 0.628516 11.1489C0.687109 11.1019 0.739063 11.0512 0.805469 11.014H0.807422L20.1613 0.208751C20.4064 0.0719828 20.6842 0 20.967 0C21.2498 0 21.5276 0.0719828 21.7727 0.208751L41.1266 11.014H41.1305C41.1949 11.0534 41.2496 11.1019 41.3078 11.147C41.3602 11.186 41.4188 11.2212 41.4648 11.2644C41.5215 11.3209 41.5617 11.3856 41.6098 11.4478C41.6441 11.4947 41.6906 11.5356 41.7188 11.5864C41.7648 11.6644 41.791 11.7466 41.8234 11.8288C41.8395 11.8735 41.8676 11.9144 41.8797 11.9614C41.9168 12.0944 41.9359 12.2318 41.9363 12.3697V52.5189L58.0637 43.514V22.9894C58.0637 22.8531 58.084 22.714 58.1203 22.5834C58.1344 22.5364 58.1605 22.4955 58.1766 22.4508C58.209 22.3686 58.2371 22.2841 58.2812 22.2084C58.3113 22.1576 58.3555 22.1167 58.3902 22.0697C58.4383 22.0072 58.4785 21.9428 58.5348 21.8879C58.5816 21.8432 58.6398 21.8099 58.6922 21.7709C58.7527 21.7239 58.8051 21.6731 58.8695 21.636H58.8715L78.2273 10.8307C78.4724 10.6938 78.7502 10.6217 79.033 10.6217C79.3158 10.6217 79.5937 10.6938 79.8387 10.8307L99.1926 21.636C99.2609 21.675 99.3133 21.7239 99.3738 21.7686C99.4238 21.808 99.4824 21.8432 99.5289 21.886C99.5852 21.9428 99.6254 22.0072 99.6734 22.0697C99.7102 22.1167 99.7543 22.1576 99.7828 22.2084C99.8289 22.2841 99.8551 22.3686 99.8871 22.4508C99.9055 22.4955 99.9316 22.5364 99.9438 22.5834V22.5834ZM96.7738 43.5144V25.6962L90.0008 29.4769L80.6441 34.7012V52.5193L96.7758 43.5144H96.7738V43.5144ZM77.4199 75.7473V57.9167L68.216 63.014L41.9344 77.5595V95.5572L77.4199 75.7466V75.7473ZM3.22617 15.0743V75.7473L38.7078 95.5557V77.5614L20.1719 67.3886L20.166 67.3848L20.1582 67.3811C20.0957 67.3458 20.043 67.2951 19.9848 67.2523C19.934 67.2129 19.8758 67.1818 19.8316 67.1386L19.8277 67.133C19.7754 67.0841 19.7391 67.0235 19.6949 66.9689C19.6543 66.9159 19.6063 66.8712 19.5738 66.8167L19.5719 66.8106C19.5355 66.7523 19.5133 66.6818 19.4871 66.6155C19.4609 66.5568 19.427 66.5019 19.4105 66.4398V66.4379C19.3906 66.3636 19.3867 66.2852 19.3785 66.2091C19.3707 66.1508 19.3543 66.092 19.3543 66.0333V24.0796L9.99922 18.8531L3.22617 15.0765V15.0743ZM20.9691 3.3686L4.84336 12.3697L20.9652 21.3705L37.0887 12.3675L20.9652 3.3686H20.9691ZM29.3551 59.5421L38.7098 54.3201V15.0743L31.9375 18.8553L22.5801 24.0792V63.3246L29.3551 59.5421V59.5421ZM79.0328 13.9906L62.9094 22.9913L79.0328 31.9924L95.1543 22.9894L79.0332 13.9906H79.0328ZM77.4195 34.7012L68.0629 29.4769L61.2902 25.6962V43.5144L70.6449 48.7368L77.4199 52.5193V34.7012H77.4195ZM40.3191 74.8549L63.9687 61.7625L75.7906 55.2201L59.6789 46.225L41.1285 56.5811L24.2215 66.0197L40.3191 74.8549Z" fill="#FF2D20"/>
</svg>
