<svg width="100" height="108" viewBox="0 0 100 108" fill="none" xmlns="http://www.w3.org/2000/svg">
<path d="M9.78781 47.1011C9.38165 45.4734 9.3816 43.7596 9.78764 42.1319C10.1937 40.5042 10.9915 39.02 12.1009 37.8285L35.2187 12.998C36.328 11.8064 37.7099 10.9495 39.2253 10.5133C40.7407 10.0772 42.3363 10.0773 43.8517 10.5135L65.4842 16.7393C65.7093 13.5562 66.7411 10.4999 68.4678 7.90141L42.4131 0.403618C40.5429 -0.134551 38.5739 -0.13454 36.7038 0.403653C34.8336 0.941848 33.1284 1.99927 31.7593 3.46963L3.2303 34.1122C1.86135 35.5828 0.876879 37.4143 0.375811 39.423C-0.125259 41.4317 -0.12527 43.5467 0.375778 45.5553L7.62494 74.6136C9.99471 72.6698 12.8161 71.4625 15.7811 71.124L9.78781 47.1011Z" fill="#2B5C94"/>
<path d="M84.0185 35.4838L90.212 60.3096C90.6183 61.9376 90.6177 63.6513 90.212 65.2787C89.8056 66.9066 89.0077 68.3907 87.8983 69.5823L64.7805 94.4133C63.6712 95.6049 62.2895 96.4614 60.7738 96.8978C59.2586 97.3337 57.6627 97.3337 56.1475 96.8978L33.7816 90.4605C33.4665 93.6454 32.3426 96.6758 30.5327 99.2209L57.5867 107.007C59.4566 107.546 61.4258 107.546 63.2958 107.007C65.1662 106.469 66.8712 105.412 68.2405 103.941L96.7695 73.2985C98.1387 71.8279 99.1227 69.9965 99.624 67.9875C100.125 65.979 100.125 63.8639 99.624 61.8555L92.1014 31.7093C89.7818 33.7429 86.9848 35.049 84.0185 35.4838Z" fill="#2B5C94"/>
<path d="M8.27523 78.6217C6.44301 80.5894 5.19525 83.0972 4.68973 85.8264C4.18422 88.5562 4.44366 91.3857 5.43525 93.957C6.42679 96.5278 8.10598 98.7256 10.2604 100.272C12.4148 101.818 14.9477 102.643 17.5389 102.643C20.13 102.643 22.6629 101.818 24.8173 100.272C26.9718 98.7256 28.651 96.5278 29.6425 93.957C30.6341 91.3857 30.8935 88.5562 30.388 85.8264C29.8825 83.0972 28.6348 80.5894 26.8025 78.6217C24.3437 75.9869 21.0122 74.5069 17.5389 74.5069C14.0656 74.5069 10.734 75.9869 8.27523 78.6217Z" fill="#5E8EC3"/>
<path d="M72.5204 8.16294C70.6885 10.1309 69.4402 12.6381 68.9352 15.3678C68.4296 18.0973 68.6889 20.9267 69.6805 23.4979C70.6722 26.0691 72.3512 28.2669 74.5054 29.813C76.6601 31.3593 79.1929 32.1846 81.7838 32.1846C84.3752 32.1846 86.9081 31.3593 89.0628 29.813C91.217 28.2669 92.8959 26.0691 93.8876 23.4979C94.8793 20.9267 95.1386 18.0973 94.633 15.3678C94.1279 12.6381 92.8797 10.1309 91.0477 8.16294C88.5892 5.52793 85.2573 4.0481 81.7838 4.0481C78.3109 4.0481 74.9789 5.52793 72.5204 8.16294Z" fill="#5E8EC3"/>
<path d="M57.9713 90.7102C57.4451 90.7102 56.9216 90.6362 56.4133 90.49L35.9401 84.5974C35.2575 80.6819 33.4889 77.0792 30.8664 74.2626C28.2438 71.446 24.8898 69.5459 21.2444 68.8129L15.7588 46.8247C15.4869 45.7279 15.4876 44.5737 15.7611 43.4774C16.0347 42.3811 16.5713 41.3811 17.3173 40.5773L38.3308 18.0064C39.0783 17.2035 40.0094 16.6261 41.0305 16.3322C42.0516 16.0384 43.1268 16.0384 44.1478 16.3324L64.0471 22.0595C64.8364 25.9508 66.7014 29.4953 69.3981 32.2287C72.0948 34.9622 75.4972 36.7571 79.1595 37.3784L84.8013 59.9988C85.073 61.096 85.0725 62.2503 84.7985 63.3463C84.5251 64.4429 83.9886 65.4427 83.2422 66.2468L62.2287 88.8171C61.671 89.419 61.007 89.8968 60.2763 90.2214C59.5456 90.5465 58.7622 90.7125 57.9713 90.7102Z" fill="#5E8EC3"/>
<path d="M27.7075 55.2292C27.7075 55.6959 27.6562 56.1299 27.5535 56.5312C27.4602 56.9325 27.2875 57.2872 27.0355 57.5952C26.7928 57.8939 26.4615 58.1319 26.0415 58.3092C25.6308 58.4772 25.1128 58.5612 24.4875 58.5612C24.1702 58.5612 23.8762 58.5332 23.6055 58.4772C23.3442 58.4305 23.1062 58.3699 22.8915 58.2952C22.6768 58.2112 22.4902 58.1272 22.3315 58.0432C22.1728 57.9499 22.0468 57.8612 21.9535 57.7772L22.4855 56.6992C22.6815 56.8392 22.9335 56.9885 23.2415 57.1472C23.5588 57.2965 23.9508 57.3712 24.4175 57.3712C25.0895 57.3712 25.5795 57.2032 25.8875 56.8672C26.1955 56.5219 26.3495 55.9339 26.3495 55.1032V48.6492H27.7075V55.2292ZM36.3875 54.7112C36.3875 55.2899 36.3035 55.8125 36.1355 56.2792C35.9675 56.7459 35.7295 57.1472 35.4215 57.4832C35.1228 57.8192 34.7635 58.0805 34.3435 58.2672C33.9235 58.4445 33.4662 58.5332 32.9715 58.5332C32.4768 58.5332 32.0195 58.4445 31.5995 58.2672C31.1795 58.0805 30.8155 57.8192 30.5075 57.4832C30.2088 57.1472 29.9755 56.7459 29.8075 56.2792C29.6395 55.8125 29.5555 55.2899 29.5555 54.7112C29.5555 54.1419 29.6395 53.6239 29.8075 53.1572C29.9755 52.6812 30.2088 52.2752 30.5075 51.9392C30.8155 51.6032 31.1795 51.3465 31.5995 51.1692C32.0195 50.9825 32.4768 50.8892 32.9715 50.8892C33.4662 50.8892 33.9235 50.9825 34.3435 51.1692C34.7635 51.3465 35.1228 51.6032 35.4215 51.9392C35.7295 52.2752 35.9675 52.6812 36.1355 53.1572C36.3035 53.6239 36.3875 54.1419 36.3875 54.7112ZM35.0295 54.7112C35.0295 53.8899 34.8428 53.2412 34.4695 52.7652C34.1055 52.2799 33.6062 52.0372 32.9715 52.0372C32.3368 52.0372 31.8328 52.2799 31.4595 52.7652C31.0955 53.2412 30.9135 53.8899 30.9135 54.7112C30.9135 55.5325 31.0955 56.1859 31.4595 56.6712C31.8328 57.1472 32.3368 57.3852 32.9715 57.3852C33.6062 57.3852 34.1055 57.1472 34.4695 56.6712C34.8428 56.1859 35.0295 55.5325 35.0295 54.7112ZM42.7759 52.0512C42.5799 52.2659 42.3185 52.5692 41.9919 52.9612C41.6745 53.3532 41.3292 53.7872 40.9559 54.2632C40.5919 54.7392 40.2232 55.2385 39.8499 55.7612C39.4859 56.2839 39.1639 56.7832 38.8839 57.2592H42.8879V58.3512H37.3299V57.4832C37.5539 57.0725 37.8292 56.6199 38.1559 56.1252C38.4825 55.6305 38.8232 55.1405 39.1779 54.6552C39.5419 54.1605 39.8919 53.6985 40.2279 53.2692C40.5732 52.8305 40.8719 52.4619 41.1239 52.1632H37.5259V51.0712H42.7759V52.0512ZM46.9997 57.4132C47.3077 57.4132 47.5784 57.4085 47.8117 57.3992C48.0544 57.3805 48.2551 57.3525 48.4137 57.3152V55.1452C48.3204 55.0985 48.1664 55.0612 47.9517 55.0332C47.7464 54.9959 47.4944 54.9772 47.1957 54.9772C46.9997 54.9772 46.7897 54.9912 46.5657 55.0192C46.3511 55.0472 46.1504 55.1079 45.9637 55.2012C45.7864 55.2852 45.6371 55.4065 45.5157 55.5652C45.3944 55.7145 45.3337 55.9152 45.3337 56.1672C45.3337 56.6339 45.4831 56.9605 45.7817 57.1472C46.0804 57.3245 46.4864 57.4132 46.9997 57.4132ZM46.8877 50.8892C47.4104 50.8892 47.8491 50.9592 48.2037 51.0992C48.5677 51.2299 48.8571 51.4212 49.0717 51.6732C49.2957 51.9159 49.4544 52.2099 49.5477 52.5552C49.6411 52.8912 49.6877 53.2645 49.6877 53.6752V58.2252C49.5757 58.2439 49.4171 58.2719 49.2117 58.3092C49.0157 58.3372 48.7917 58.3652 48.5397 58.3932C48.2877 58.4212 48.0124 58.4445 47.7137 58.4632C47.4244 58.4912 47.1351 58.5052 46.8457 58.5052C46.4351 58.5052 46.0571 58.4632 45.7117 58.3792C45.3664 58.2952 45.0677 58.1645 44.8157 57.9872C44.5637 57.8005 44.3677 57.5579 44.2277 57.2592C44.0877 56.9605 44.0177 56.6012 44.0177 56.1812C44.0177 55.7799 44.0971 55.4345 44.2557 55.1452C44.4237 54.8559 44.6477 54.6225 44.9277 54.4452C45.2077 54.2679 45.5344 54.1372 45.9077 54.0532C46.2811 53.9692 46.6731 53.9272 47.0837 53.9272C47.2144 53.9272 47.3497 53.9365 47.4897 53.9552C47.6297 53.9645 47.7604 53.9832 47.8817 54.0112C48.0124 54.0299 48.1244 54.0485 48.2177 54.0672C48.3111 54.0859 48.3764 54.0999 48.4137 54.1092V53.7452C48.4137 53.5305 48.3904 53.3205 48.3437 53.1152C48.2971 52.9005 48.2131 52.7139 48.0917 52.5552C47.9704 52.3872 47.8024 52.2565 47.5877 52.1632C47.3824 52.0605 47.1117 52.0092 46.7757 52.0092C46.3464 52.0092 45.9684 52.0419 45.6417 52.1072C45.3244 52.1632 45.0864 52.2239 44.9277 52.2892L44.7737 51.2112C44.9417 51.1365 45.2217 51.0665 45.6137 51.0012C46.0057 50.9265 46.4304 50.8892 46.8877 50.8892ZM56.4142 57.6232C56.3022 57.6979 56.0828 57.7959 55.7562 57.9172C55.4388 58.0292 55.0655 58.0852 54.6362 58.0852C54.1975 58.0852 53.7822 58.0152 53.3902 57.8752C53.0075 57.7352 52.6715 57.5205 52.3822 57.2312C52.0928 56.9325 51.8642 56.5639 51.6962 56.1252C51.5282 55.6865 51.4442 55.1639 51.4442 54.5572C51.4442 54.0252 51.5235 53.5399 51.6822 53.1012C51.8408 52.6532 52.0695 52.2705 52.3682 51.9532C52.6762 51.6265 53.0495 51.3745 53.4882 51.1972C53.9268 51.0105 54.4215 50.9172 54.9722 50.9172C55.5788 50.9172 56.1062 50.9639 56.5542 51.0572C57.0115 51.1412 57.3942 51.2205 57.7022 51.2952V57.7912C57.7022 58.9112 57.4128 59.7232 56.8342 60.2272C56.2555 60.7312 55.3782 60.9832 54.2022 60.9832C53.7448 60.9832 53.3108 60.9459 52.9002 60.8712C52.4988 60.7965 52.1488 60.7079 51.8502 60.6052L52.0882 59.4712C52.3495 59.5739 52.6668 59.6625 53.0402 59.7372C53.4228 59.8212 53.8195 59.8632 54.2302 59.8632C55.0048 59.8632 55.5602 59.7092 55.8962 59.4012C56.2415 59.0932 56.4142 58.6032 56.4142 57.9312V57.6232ZM56.4002 52.2192C56.2695 52.1819 56.0922 52.1492 55.8682 52.1212C55.6535 52.0839 55.3595 52.0652 54.9862 52.0652C54.2862 52.0652 53.7448 52.2939 53.3622 52.7512C52.9888 53.2085 52.8022 53.8152 52.8022 54.5712C52.8022 54.9912 52.8535 55.3505 52.9562 55.6492C53.0682 55.9479 53.2128 56.1952 53.3902 56.3912C53.5768 56.5872 53.7868 56.7319 54.0202 56.8252C54.2628 56.9185 54.5102 56.9652 54.7622 56.9652C55.1075 56.9652 55.4248 56.9185 55.7142 56.8252C56.0035 56.7225 56.2322 56.6059 56.4002 56.4752V52.2192ZM65.7399 58.1412C65.4413 58.2159 65.0446 58.2952 64.5499 58.3792C64.0646 58.4632 63.4999 58.5052 62.8559 58.5052C62.2959 58.5052 61.8246 58.4259 61.4419 58.2672C61.0593 58.0992 60.7513 57.8659 60.5179 57.5672C60.2846 57.2685 60.1166 56.9185 60.0139 56.5172C59.9113 56.1065 59.8599 55.6539 59.8599 55.1592V51.0712H61.1619V54.8792C61.1619 55.7659 61.3019 56.4005 61.5819 56.7832C61.8619 57.1659 62.3333 57.3572 62.9959 57.3572C63.1359 57.3572 63.2806 57.3525 63.4299 57.3432C63.5793 57.3339 63.7193 57.3245 63.8499 57.3152C63.9806 57.2965 64.0973 57.2825 64.1999 57.2732C64.3119 57.2545 64.3913 57.2359 64.4379 57.2172V51.0712H65.7399V58.1412ZM69.201 51.0712H71.959V52.1632H69.201V55.5232C69.201 55.8872 69.229 56.1905 69.285 56.4332C69.341 56.6665 69.425 56.8532 69.537 56.9932C69.649 57.1239 69.789 57.2172 69.957 57.2732C70.125 57.3292 70.321 57.3572 70.545 57.3572C70.937 57.3572 71.2497 57.3152 71.483 57.2312C71.7257 57.1379 71.8937 57.0725 71.987 57.0352L72.239 58.1132C72.1083 58.1785 71.8797 58.2579 71.553 58.3512C71.2263 58.4539 70.853 58.5052 70.433 58.5052C69.9383 58.5052 69.5277 58.4445 69.201 58.3232C68.8837 58.1925 68.627 58.0012 68.431 57.7492C68.235 57.4972 68.095 57.1892 68.011 56.8252C67.9363 56.4519 67.899 56.0225 67.899 55.5372V49.0412L69.201 48.8172V51.0712ZM75.3098 57.4132C75.8418 57.4132 76.2338 57.3432 76.4858 57.2032C76.7471 57.0632 76.8778 56.8392 76.8778 56.5312C76.8778 56.2139 76.7518 55.9619 76.4998 55.7752C76.2478 55.5885 75.8325 55.3785 75.2538 55.1452C74.9738 55.0332 74.7031 54.9212 74.4418 54.8092C74.1898 54.6879 73.9705 54.5479 73.7838 54.3892C73.5971 54.2305 73.4478 54.0392 73.3358 53.8152C73.2238 53.5912 73.1678 53.3159 73.1678 52.9892C73.1678 52.3452 73.4058 51.8365 73.8818 51.4632C74.3578 51.0805 75.0065 50.8892 75.8278 50.8892C76.0331 50.8892 76.2385 50.9032 76.4438 50.9312C76.6491 50.9499 76.8405 50.9779 77.0178 51.0152C77.1951 51.0432 77.3491 51.0759 77.4798 51.1132C77.6198 51.1505 77.7271 51.1832 77.8018 51.2112L77.5638 52.3312C77.4238 52.2565 77.2045 52.1819 76.9058 52.1072C76.6071 52.0232 76.2478 51.9812 75.8278 51.9812C75.4638 51.9812 75.1465 52.0559 74.8758 52.2052C74.6051 52.3452 74.4698 52.5692 74.4698 52.8772C74.4698 53.0359 74.4978 53.1759 74.5538 53.2972C74.6191 53.4185 74.7125 53.5305 74.8338 53.6332C74.9645 53.7265 75.1231 53.8152 75.3098 53.8992C75.4965 53.9832 75.7205 54.0719 75.9818 54.1652C76.3271 54.2959 76.6351 54.4265 76.9058 54.5572C77.1765 54.6785 77.4051 54.8232 77.5918 54.9912C77.7878 55.1592 77.9371 55.3645 78.0398 55.6072C78.1425 55.8405 78.1938 56.1299 78.1938 56.4752C78.1938 57.1472 77.9418 57.6559 77.4378 58.0012C76.9431 58.3465 76.2338 58.5192 75.3098 58.5192C74.6658 58.5192 74.1618 58.4632 73.7978 58.3512C73.4338 58.2485 73.1865 58.1692 73.0558 58.1132L73.2938 56.9932C73.4431 57.0492 73.6811 57.1332 74.0078 57.2452C74.3345 57.3572 74.7685 57.4132 75.3098 57.4132Z" fill="white"/>
</svg>
