<svg width="100" height="68" viewBox="0 0 100 68" fill="none" xmlns="http://www.w3.org/2000/svg">
<path d="M50 0C36.6668 0 28.3332 7.50794 25 22.5234C30 15.0154 35.8332 12.2 42.5 14.0771C46.3035 15.1479 49.0223 18.2558 52.0316 21.6955C56.934 27.2995 62.6074 33.7851 75 33.7851C88.3332 33.7851 96.6668 26.2771 100 11.2617C95 18.7696 89.1668 21.5851 82.5 19.708C78.6965 18.6372 75.9777 15.5293 72.9684 12.0896C68.066 6.48559 62.3926 0 50 0ZM25 33.7851C11.6668 33.7851 3.3332 41.293 0 56.3085C5 48.8005 10.8332 45.9851 17.5 47.8622C21.3035 48.9329 24.0223 52.0409 27.0316 55.4805C31.934 61.0846 37.6074 67.5702 50 67.5702C63.3332 67.5702 71.6668 60.0622 75 45.0468C70 52.5547 64.1668 55.3701 57.5 53.493C53.6965 52.4223 50.9777 49.3143 47.9684 45.8747C43.066 40.2707 37.3926 33.7851 25 33.7851Z" fill="url(#paint0_linear)"/>
<defs>
<linearGradient id="paint0_linear" x1="-2.778" y1="21.6224" x2="88.4001" y2="68.3043" gradientUnits="userSpaceOnUse">
<stop stop-color="#2298BD"/>
<stop offset="1" stop-color="#0ED7B5"/>
</linearGradient>
</defs>
</svg>
