<svg width="100" height="75" viewBox="0 0 100 75" fill="none" xmlns="http://www.w3.org/2000/svg">
<path fill-rule="evenodd" clip-rule="evenodd" d="M30.4316 72.1132C30.3574 71.9812 30.2914 71.8448 30.2339 71.7047C29.8345 70.7757 29.7115 69.7502 29.8799 68.7525H6.24832L41.3672 6.62711L52.8966 27.0006L56.2398 21.0541L46.1895 3.25582C45.9082 2.7429 44.2106 0 41.2839 0C39.9614 0 38.0658 0.575758 36.5245 3.29785L0.947365 66.1769C0.645357 66.7212 -0.823267 69.5796 0.634808 72.1132C1.30133 73.2647 2.718 74.6361 5.84239 74.6361H35.6392C32.5355 74.6361 31.0981 73.2855 30.4316 72.1132V72.1132Z" fill="#01C58E"/>
<path fill-rule="evenodd" clip-rule="evenodd" d="M98.9401 66.1769L69.7059 14.4058C69.4039 13.8614 67.7165 11.1079 64.7792 11.1079C63.4567 11.1079 61.5614 11.6735 60.0197 14.3952L56.2394 21.0541L59.6033 27.0002L64.8108 17.7354L93.7329 68.7525H82.7348C82.8754 69.5957 82.7965 70.4613 82.5055 71.2652C82.4442 71.4426 82.3676 71.6142 82.2765 71.7781L82.1827 71.9667C80.704 74.4998 77.5061 74.6361 76.8818 74.6361H94.0868C94.7221 74.6361 97.909 74.5002 99.3882 71.9667C100.045 70.8148 100.513 68.8781 98.9401 66.1769V66.1769Z" fill="#108775"/>
<path fill-rule="evenodd" clip-rule="evenodd" d="M82.1826 71.9667L82.2764 71.7781C82.3674 71.614 82.4444 71.4424 82.5054 71.2652C82.7964 70.4613 82.8753 69.5961 82.7347 68.7525C82.5726 67.8428 82.2479 66.9702 81.7763 66.1769L59.6239 27.0006L56.2393 21.0541L52.8754 27.0002L30.7331 66.1769C30.3033 66.9797 30.0145 67.851 29.8794 68.7525C29.7012 69.7472 29.8133 70.7726 30.2022 71.7047C30.2596 71.8449 30.3256 71.9812 30.3999 72.1132C31.0664 73.2647 32.483 74.6361 35.6074 74.6361H76.8504C77.5064 74.6361 80.7039 74.5002 82.1826 71.9667V71.9667ZM56.2393 32.9471L76.4859 68.7525H36.0032L56.2393 32.9471V32.9471Z" fill="#2F495E"/>
</svg>
