<svg width="100" height="75" viewBox="0 0 100 75" fill="none" xmlns="http://www.w3.org/2000/svg">
<path d="M50 74.7777C77.6142 74.7777 100 58.0382 100 37.3889C100 16.7396 77.6142 0 50 0C22.3858 0 0 16.7396 0 37.3889C0 58.0382 22.3858 74.7777 50 74.7777Z" fill="url(#paint0_radial)"/>
<path d="M50 71.9996C76.5356 71.9996 98.0469 56.5037 98.0469 37.3885C98.0469 18.2733 76.5356 2.77734 50 2.77734C23.4644 2.77734 1.95312 18.2733 1.95312 37.3885C1.95312 56.5037 23.4644 71.9996 50 71.9996Z" fill="#6181B6"/>
<path d="M59.7277 48.6112L62.1105 31.1667C62.6574 27.2223 62.1887 24.2778 60.7824 22.4445C59.4152 20.6667 57.0715 19.7778 53.634 19.7778H49.4933L50.6652 11.1112C50.7043 10.7778 50.6652 10.4445 50.509 10.1667C50.3527 9.88894 50.1574 9.77783 49.923 9.77783H44.2199C43.8293 9.77783 43.5168 10.1667 43.4387 10.6667L40.8996 29.1667C40.6652 27.0556 40.1183 25.2778 39.1808 23.8334C37.5012 21.1112 34.884 19.7223 31.3293 19.7223H20.3527C19.9621 19.7223 19.6496 20.1112 19.5715 20.6112L14.4543 58.1668C14.4152 58.5001 14.4543 58.8334 14.6105 59.1112C14.7668 59.389 14.9621 59.5001 15.1965 59.5001H20.9387C21.3293 59.5001 21.6418 59.1112 21.7199 58.6112L22.9699 49.5556H27.2277C29.4543 49.5556 31.3683 49.2223 32.8137 48.5556C34.3371 47.8334 35.7043 46.6667 36.9152 45.0556C37.8918 43.7779 38.7121 42.3334 39.3371 40.7779L38.3215 48.2779C38.2824 48.6112 38.3215 48.9445 38.4777 49.2223C38.634 49.5001 38.8293 49.6112 39.0637 49.6112H44.7668C45.1574 49.6112 45.4699 49.2223 45.548 48.7223L48.3605 28.1667H52.2668C53.9465 28.1667 54.4152 28.6112 54.5715 28.8334C54.6887 29.0001 54.923 29.6667 54.6496 31.7223L52.384 48.3334C52.3449 48.6667 52.384 49.0001 52.5402 49.2779C52.6965 49.5556 52.8918 49.6668 53.1262 49.6668H58.9855C59.3371 49.5001 59.6496 49.1112 59.7277 48.6112ZM33.3215 34.1667C32.9699 36.7779 32.3058 38.6667 31.3293 39.7223C30.3527 40.7779 28.7512 41.3334 26.6418 41.3334H24.1027L25.9387 27.889H29.2199C31.6418 27.889 32.6183 28.6112 33.009 29.2223C33.5168 30.1112 33.634 31.8334 33.3215 34.1667V34.1667Z" fill="white"/>
<path d="M84.0984 23.8341C82.4187 21.1119 79.8015 19.723 76.2468 19.723H65.1921C64.8014 19.723 64.4889 20.1119 64.4108 20.6119L59.2936 58.1119C59.2546 58.4452 59.2936 58.7786 59.4499 59.0563C59.6061 59.3341 59.8014 59.4452 60.0358 59.4452H65.778C66.1686 59.4452 66.4811 59.0563 66.5593 58.5563L67.8093 49.5008H72.0671C74.2936 49.5008 76.2077 49.1675 77.653 48.5008C79.1765 47.7786 80.5437 46.6119 81.7546 45.0008C82.7702 43.6675 83.6296 42.1675 84.2546 40.5563C84.8796 38.9452 85.3484 37.1675 85.6218 35.223C86.2859 30.3897 85.778 26.6119 84.0984 23.8341V23.8341ZM78.1218 34.1675C77.7702 36.7786 77.1062 38.6675 76.1296 39.723C75.153 40.7786 73.5515 41.3341 71.4421 41.3341H68.903L70.739 27.8897H74.0202C76.4421 27.8897 77.4187 28.6119 77.8093 29.223C78.3562 30.1119 78.4733 31.8341 78.1218 34.1675Z" fill="white"/>
<path d="M29.2187 26.7784C31.4062 26.7784 32.8515 27.3339 33.5937 28.5006C34.3359 29.6673 34.4922 31.6117 34.1015 34.3895C33.7109 37.2784 32.9297 39.3895 31.7969 40.6117C30.6641 41.8339 28.9453 42.445 26.6406 42.445H23.1641L25.3125 26.7784H29.2187V26.7784ZM15.2344 58.3339H20.9766L22.3437 48.3895H27.2656C29.4531 48.3895 31.2109 48.0561 32.6172 47.3895C34.0234 46.7228 35.2734 45.6673 36.4453 44.1117C37.4219 42.8339 38.2031 41.445 38.789 39.945C39.375 38.445 39.8047 36.7784 40.039 34.945C40.664 30.5006 40.1953 27.0561 38.6719 24.5561C37.1484 22.0561 34.7265 20.8339 31.4062 20.8339H20.3516L15.2344 58.3339Z" fill="#000004"/>
<path d="M44.2549 10.8887H49.958L48.5908 20.8332H53.6689C56.8721 20.8332 59.0596 21.611 60.2705 23.2221C61.4814 24.8332 61.833 27.3887 61.3643 30.9443L58.9814 48.3887H53.2002L55.4658 31.7776C55.7393 29.8887 55.6221 28.611 55.1924 27.9443C54.7627 27.2776 53.7861 26.8887 52.3408 26.8887H47.7705L44.8408 48.3887H39.1377L44.2549 10.8887V10.8887Z" fill="#000004"/>
<path d="M74.0205 26.7784C76.208 26.7784 77.6533 27.3339 78.3955 28.5006C79.1377 29.6673 79.2939 31.6117 78.9033 34.3895C78.5127 37.2784 77.7314 39.3895 76.5986 40.6117C75.4658 41.8339 73.7471 42.445 71.4424 42.445H67.9658L70.1143 26.7784H74.0205ZM60.0361 58.3339H65.7783L67.1455 48.3895H72.0674C74.2549 48.3895 76.0127 48.0561 77.4189 47.3895C78.8252 46.7228 80.0752 45.6673 81.2471 44.1117C82.2236 42.8339 83.0049 41.445 83.5908 39.945C84.1767 38.445 84.6064 36.7784 84.8408 34.945C85.4658 30.5006 84.9971 27.0561 83.4736 24.5561C81.9502 22.0561 79.5283 20.8339 76.208 20.8339H65.1533L60.0361 58.3339Z" fill="#000004"/>
<defs>
<radialGradient id="paint0_radial" cx="0" cy="0" r="1" gradientUnits="userSpaceOnUse" gradientTransform="translate(30.0201 13.1486) scale(65.6623 93.3863)">
<stop stop-color="white"/>
<stop offset="0.5" stop-color="#4C6B97"/>
<stop offset="1" stop-color="#231F20"/>
</radialGradient>
</defs>
</svg>
