<svg width="100" height="100" viewBox="0 0 100 100" fill="none" xmlns="http://www.w3.org/2000/svg">
<path d="M0 0H100V100H0V0Z" fill="#F7DF1E"/>
<path d="M26.2938 83.5671L33.9462 78.9359C35.4228 81.5535 36.7657 83.7683 39.9872 83.7683C43.0751 83.7683 45.0224 82.5605 45.0224 77.8621V45.9097H54.4196V77.9949C54.4196 87.7281 48.7142 92.1585 40.3899 92.1585C32.8724 92.1585 28.5087 88.2652 26.2935 83.5664" fill="black"/>
<path d="M59.5238 82.5602L67.1754 78.1301C69.1898 81.4195 71.8078 83.8359 76.439 83.8359C80.3332 83.8359 82.816 81.8891 82.816 79.2039C82.816 75.982 80.2652 74.8406 75.9691 72.9617L73.6203 71.9539C66.8402 69.0684 62.343 65.4434 62.343 57.791C62.343 50.7426 67.7129 45.3723 76.1039 45.3723C82.0781 45.3723 86.3742 47.4535 89.4617 52.8906L82.1445 57.5898C80.5332 54.7035 78.7886 53.5625 76.1035 53.5625C73.3512 53.5625 71.6058 55.3078 71.6058 57.5898C71.6058 60.409 73.3512 61.5508 77.3785 63.2961L79.7277 64.3027C87.716 67.7266 92.2132 71.2168 92.2132 79.0699C92.2132 87.5285 85.5679 92.1598 76.6402 92.1598C67.9141 92.1598 62.2754 87.9981 59.5234 82.5606" fill="black"/>
</svg>
