<svg width="100" height="75" viewBox="0 0 100 75" fill="none" xmlns="http://www.w3.org/2000/svg">
<path d="M85.8701 42.9922C82.3912 43.0101 79.3673 43.848 76.8357 45.0867C75.9064 43.2468 74.9775 41.6078 74.8138 40.4054C74.6314 39.0031 74.413 38.1468 74.6314 36.4711C74.8501 34.7953 75.8337 32.4089 75.8154 32.2269C75.7974 32.0449 75.5966 31.1886 73.5931 31.1707C71.5896 31.1523 69.8591 31.5531 69.6587 32.0812C69.4583 32.6093 69.0759 33.8117 68.8208 35.05C68.4747 36.8718 64.8138 43.3742 62.7193 46.7804C62.0451 45.4511 61.4622 44.2851 61.3345 43.3562C61.1525 41.9539 60.9337 41.0976 61.1525 39.4218C61.3712 37.7461 62.3548 35.3601 62.3365 35.1777C62.3181 34.9957 62.1177 34.1394 60.1142 34.1214C58.1103 34.1031 56.3798 34.5039 56.1798 35.032C55.9794 35.5605 55.7607 36.7988 55.3419 38.0011C54.9228 39.2035 50.0595 50.0597 48.7845 52.8644C48.2693 53.9996 47.7288 55.1232 47.1634 56.2343C47.1634 56.2343 47.1451 56.289 47.0904 56.38C46.9128 56.7284 46.7307 57.0746 46.5443 57.4183V57.4363C46.2708 57.9285 45.9794 58.3836 45.8337 58.3836C45.7244 58.3836 45.524 57.0722 45.8701 55.2871C46.5986 51.5168 48.329 45.6515 48.3111 45.4511C48.3111 45.3418 48.6388 44.3218 47.1818 43.7933C45.7607 43.2652 45.2509 44.1394 45.1232 44.1394C44.9958 44.1394 44.9044 44.4492 44.9044 44.4492C44.9044 44.4492 46.4896 37.8554 41.881 37.8554C39.0033 37.8554 35.0322 41.0066 33.065 43.848C30.8287 45.065 28.5943 46.2854 26.3619 47.5093C25.2876 48.1105 24.1763 48.7117 23.138 49.2761C23.065 49.2035 22.9923 49.1121 22.9193 49.0394C17.3454 43.0832 7.03608 38.8754 7.47318 30.8793C7.63725 27.9648 8.63881 20.3144 27.2728 11.025C42.6095 3.46559 54.8138 5.56012 56.9267 10.205C59.9501 16.8355 50.3876 29.1488 34.5404 30.9336C28.4931 31.6078 25.3236 29.2761 24.5224 28.4019C23.6845 27.491 23.5568 27.4363 23.247 27.6187C22.7372 27.8921 23.065 28.7117 23.247 29.1851C23.7208 30.4234 25.6697 32.6093 28.9665 33.6843C31.881 34.6312 38.9665 35.1597 47.5458 31.8445C57.1451 28.1285 64.6497 17.8007 62.4458 9.14879C60.2415 0.369103 45.6697 -2.52699 31.881 2.37262C23.6845 5.28746 14.7954 9.87731 8.40209 15.8519C0.806388 22.9554 -0.395955 29.1304 0.0958416 31.7172C1.86303 40.8972 14.5224 46.8718 19.5861 51.298C19.331 51.4437 19.0939 51.5714 18.8939 51.6808C16.3619 52.9375 6.70795 57.9828 4.30365 63.3199C1.57162 69.3671 4.74115 73.7027 6.83568 74.2851C13.3384 76.0886 20.0232 72.8464 23.6115 67.491C27.1997 62.1359 26.7626 55.1777 25.1052 51.9902C25.0869 51.9539 25.0689 51.9171 25.0322 51.8808C25.688 51.4984 26.3619 51.0976 27.0177 50.7152C28.2231 50.0026 29.4439 49.3163 30.679 48.6566C30.0595 50.3507 29.604 52.3726 29.3857 55.2871C29.1122 58.7117 30.5146 63.1558 32.3544 64.9043C33.1744 65.6699 34.1396 65.6879 34.7591 65.6879C36.9083 65.6879 37.874 63.9027 38.9486 61.7898C40.2599 59.2035 41.4439 56.198 41.4439 56.198C41.4439 56.198 39.9685 64.3218 43.9759 64.3218C45.4329 64.3218 46.9083 62.4273 47.5642 61.4621V61.48C47.5642 61.48 47.6005 61.4254 47.6736 61.298C47.8193 61.0613 47.9103 60.9152 47.9103 60.9152V60.8793C48.4931 59.8589 49.8048 57.5457 51.7536 53.7023C54.2673 48.748 56.69 42.555 56.69 42.555C56.69 42.555 56.9087 44.0668 57.6552 46.5804C58.0927 48.0558 59.0029 49.6769 59.7318 51.2433C59.149 52.0632 58.7845 52.5183 58.7845 52.5183L58.8029 52.5367C58.329 53.1558 57.8193 53.8296 57.2544 54.4859C55.2689 56.8535 52.9013 59.5679 52.5732 60.3507C52.1904 61.2796 52.2818 61.9539 53.0107 62.5004C53.5388 62.9011 54.4857 62.9554 55.4513 62.9011C57.2365 62.7734 58.4931 62.3363 59.1122 62.0632C60.0779 61.7171 61.2072 61.1886 62.2634 60.4054C64.2126 58.9664 65.3962 56.9082 65.2872 54.1945C65.2326 52.7007 64.7408 51.207 64.1396 49.8043C64.322 49.5496 64.4857 49.2945 64.6681 49.0394C67.7462 44.5402 70.1326 39.6039 70.1326 39.6039C70.1326 39.6039 70.3513 41.1156 71.0978 43.6297C71.4622 44.9047 72.2091 46.289 72.8646 47.6367C69.9685 49.9867 68.1833 52.7187 67.5458 54.5039C66.3986 57.8191 67.2908 59.3125 68.9849 59.6586C69.7497 59.8226 70.8427 59.4582 71.6443 59.1121C72.6642 58.7843 73.8665 58.2199 75.0142 57.3816C76.9634 55.9429 78.8392 53.939 78.7298 51.2254C78.6751 49.9867 78.3474 48.766 77.8919 47.582C80.3509 46.5625 83.5204 45.9976 87.5638 46.4711C96.2345 47.491 97.9466 52.9007 97.6185 55.1781C97.2908 57.4547 95.4693 58.6933 94.8685 59.0757C94.2669 59.4586 94.0669 59.5859 94.1216 59.8589C94.1943 60.2597 94.4857 60.2418 94.9958 60.1687C95.7064 60.0414 99.5497 58.3289 99.7134 54.1394C99.9869 48.7843 94.8865 42.9375 85.8701 42.9922V42.9922ZM18.9849 65.5421C16.1068 68.675 12.0997 69.8589 10.3693 68.8574C8.51147 67.7824 9.23998 63.1558 12.7736 59.841C14.9228 57.8191 17.6915 55.9425 19.5314 54.7953C19.9501 54.5402 20.5697 54.1761 21.3165 53.7207C21.4439 53.6476 21.5169 53.6113 21.5169 53.6113L21.954 53.3378C23.247 58.0738 22.0087 62.2453 18.9849 65.5421V65.5421ZM39.9322 51.298C38.9302 53.739 36.8357 59.9867 35.5607 59.6406C34.4677 59.3492 33.7935 54.6132 35.3419 49.932C36.1251 47.582 37.7826 44.7769 38.7482 43.6843C40.3146 41.9355 42.0451 41.3523 42.4638 42.0632C42.9923 42.9922 40.5513 49.7679 39.9322 51.298V51.298ZM57.2181 59.5675C56.799 59.7863 56.3986 59.932 56.2162 59.8226C56.0888 59.7496 56.3986 59.4582 56.3986 59.4582C56.3986 59.4582 58.5662 57.1269 59.422 56.0703C59.9142 55.4511 60.4966 54.7226 61.1161 53.9027V54.1394C61.1161 56.9265 58.4201 58.8027 57.2177 59.5675H57.2181ZM70.5513 56.5257C70.2415 56.307 70.2962 55.5785 71.3345 53.3015C71.7353 52.4089 72.6822 50.9156 74.3037 49.4765C74.4857 50.0593 74.6134 50.6242 74.5951 51.1523C74.5767 54.6679 72.0634 55.9793 70.5513 56.5257Z" fill="#CD6799"/>
</svg>
